<svg width="32" height="32" viewBox="0 0 32 32" fill="none" xmlns="http://www.w3.org/2000/svg">
    <path fill-rule="evenodd" clip-rule="evenodd"
          d="M6.86879 6.8688C7.16883 6.56885 7.57573 6.40034 7.99999 6.40034C8.42425 6.40034 8.83114 6.56885 9.13119 6.8688L16 13.7376L22.8688 6.8688C23.0164 6.71599 23.1929 6.59409 23.3881 6.51024C23.5833 6.42639 23.7933 6.38225 24.0057 6.3804C24.2182 6.37855 24.4289 6.41904 24.6255 6.49949C24.8221 6.57994 25.0008 6.69874 25.151 6.84897C25.3012 6.9992 25.4201 7.17784 25.5005 7.37448C25.581 7.57111 25.6214 7.7818 25.6196 7.99424C25.6177 8.20669 25.5736 8.41664 25.4898 8.61185C25.4059 8.80705 25.284 8.98361 25.1312 9.1312L18.2624 16L25.1312 22.8688C25.4226 23.1706 25.5839 23.5747 25.5803 23.9942C25.5766 24.4138 25.4084 24.8151 25.1117 25.1117C24.815 25.4084 24.4137 25.5766 23.9942 25.5803C23.5747 25.5839 23.1706 25.4227 22.8688 25.1312L16 18.2624L9.13119 25.1312C8.82942 25.4227 8.42526 25.5839 8.00575 25.5803C7.58623 25.5766 7.18493 25.4084 6.88828 25.1117C6.59163 24.8151 6.42335 24.4138 6.41971 23.9942C6.41606 23.5747 6.57734 23.1706 6.86879 22.8688L13.7376 16L6.86879 9.1312C6.56883 8.83116 6.40033 8.42426 6.40033 8C6.40033 7.57574 6.56883 7.16885 6.86879 6.8688Z"
          fill="white"/>
</svg>
