<svg viewBox="0 0 561 294" fill="none" xmlns="http://www.w3.org/2000/svg">
    <g clip-path="url(#clip0)">
        <g opacity="0.1">
            <path opacity="0.1"
                  d="M245.397 192.859C248.614 192.859 251.222 189.447 251.222 185.237C251.222 181.028 248.614 177.615 245.397 177.615C242.18 177.615 239.572 181.028 239.572 185.237C239.572 189.447 242.18 192.859 245.397 192.859Z"
                  fill="#3F3D56"/>
            <path opacity="0.1"
                  d="M250.008 152.627C250.821 151.209 251.241 149.601 251.227 147.967C251.227 143.757 248.616 140.345 245.397 140.345C242.177 140.345 239.551 143.767 239.551 147.977C239.536 149.611 239.957 151.219 240.769 152.637C239.971 154.06 239.551 155.664 239.551 157.295C239.551 158.926 239.971 160.53 240.769 161.952C239.971 163.375 239.551 164.979 239.551 166.61C239.551 168.241 239.971 169.845 240.769 171.267C239.955 172.685 239.535 174.293 239.551 175.927C239.551 180.132 242.162 183.549 245.376 183.549C248.591 183.549 251.206 180.132 251.206 175.927C251.223 174.293 250.802 172.685 249.988 171.267C250.786 169.845 251.206 168.241 251.206 166.61C251.206 164.979 250.786 163.375 249.988 161.952C250.786 160.53 251.206 158.926 251.206 157.295C251.206 155.664 250.786 154.06 249.988 152.637L250.008 152.627Z"
                  fill="#3F3D56"/>
            <path opacity="0.1"
                  d="M245.397 146.284C248.614 146.284 251.222 142.871 251.222 138.662C251.222 134.453 248.614 131.04 245.397 131.04C242.18 131.04 239.572 134.453 239.572 138.662C239.572 142.871 242.18 146.284 245.397 146.284Z"
                  fill="#3F3D56"/>
            <path opacity="0.1"
                  d="M245.397 136.969C248.614 136.969 251.222 133.556 251.222 129.347C251.222 125.138 248.614 121.725 245.397 121.725C242.18 121.725 239.572 125.138 239.572 129.347C239.572 133.556 242.18 136.969 245.397 136.969Z"
                  fill="#3F3D56"/>
            <path opacity="0.1"
                  d="M223.591 65.5943C222.793 64.5831 222.068 63.5164 221.421 62.4023L236.726 59.8906L220.172 60.0134C218.587 56.5584 217.724 52.8167 217.636 49.017C217.548 45.2173 218.237 41.4396 219.66 37.9151L241.87 49.4298L221.395 34.3804C223.299 31.0362 225.874 28.1217 228.959 25.8201C232.044 23.5185 235.572 21.8795 239.321 21.0063C243.071 20.133 246.96 20.0443 250.745 20.7457C254.531 21.4471 258.13 22.9235 261.317 25.0821C264.503 27.2406 267.209 30.0347 269.263 33.2886C271.317 36.5425 272.676 40.1859 273.253 43.9898C273.83 47.7936 273.614 51.6757 272.617 55.3919C271.621 59.1082 269.866 62.5783 267.463 65.584C268.704 67.1597 269.771 68.8644 270.647 70.6687L250.771 81.012L271.957 73.9067C273.446 78.3018 273.814 82.9987 273.029 87.5719C272.243 92.1451 270.328 96.4502 267.458 100.097C270.696 104.211 272.71 109.152 273.271 114.356C273.831 119.56 272.915 124.817 270.627 129.525C268.339 134.233 264.772 138.202 260.333 140.98C255.893 143.757 250.762 145.23 245.525 145.23C240.287 145.23 235.156 143.757 230.716 140.98C226.277 138.202 222.71 134.233 220.422 129.525C218.134 124.817 217.218 119.56 217.778 114.356C218.339 109.152 220.353 104.211 223.591 100.097C219.721 95.1815 217.617 89.1083 217.617 82.8535C217.617 76.5987 219.721 70.5255 223.591 65.6096V65.5943Z"
                  fill="#6C63FF"/>
            <path opacity="0.1"
                  d="M273.431 82.8381C273.441 89.0945 271.336 95.1709 267.458 100.082C270.696 104.196 272.71 109.137 273.271 114.341C273.831 119.545 272.915 124.801 270.627 129.509C268.339 134.217 264.772 138.187 260.333 140.964C255.893 143.741 250.762 145.214 245.525 145.214C240.287 145.214 235.156 143.741 230.716 140.964C226.277 138.187 222.71 134.217 220.422 129.509C218.134 124.801 217.218 119.545 217.778 114.341C218.339 109.137 220.353 104.196 223.591 100.082C219.85 95.3349 273.431 79.7075 273.431 82.8381Z"
                  fill="black"/>
        </g>
        <g opacity="0.1">
            <path opacity="0.1"
                  d="M313.402 174.633C315.808 174.633 317.758 172.084 317.758 168.94C317.758 165.795 315.808 163.246 313.402 163.246C310.997 163.246 309.047 165.795 309.047 168.94C309.047 172.084 310.997 174.633 313.402 174.633Z"
                  fill="#3F3D56"/>
            <path opacity="0.1"
                  d="M316.842 144.575C317.448 143.517 317.76 142.316 317.748 141.097C317.748 137.951 315.798 135.398 313.397 135.398C310.997 135.398 309.041 137.956 309.041 141.097C309.028 142.317 309.343 143.518 309.952 144.575C309.355 145.638 309.042 146.837 309.042 148.056C309.042 149.276 309.355 150.474 309.952 151.537C309.355 152.6 309.042 153.799 309.042 155.018C309.042 156.238 309.355 157.436 309.952 158.499C309.343 159.557 309.028 160.758 309.041 161.978C309.041 165.124 310.992 167.676 313.397 167.676C315.803 167.676 317.748 165.119 317.748 161.978C317.76 160.759 317.448 159.558 316.842 158.499C317.435 157.435 317.746 156.237 317.746 155.018C317.746 153.8 317.435 152.602 316.842 151.537C317.435 150.473 317.746 149.275 317.746 148.056C317.746 146.838 317.435 145.64 316.842 144.575Z"
                  fill="#3F3D56"/>
            <path opacity="0.1"
                  d="M313.402 139.828C315.808 139.828 317.758 137.279 317.758 134.135C317.758 130.991 315.808 128.442 313.402 128.442C310.997 128.442 309.047 130.991 309.047 134.135C309.047 137.279 310.997 139.828 313.402 139.828Z"
                  fill="#3F3D56"/>
            <path opacity="0.1"
                  d="M313.402 132.866C315.808 132.866 317.758 130.317 317.758 127.173C317.758 124.029 315.808 121.48 313.402 121.48C310.997 121.48 309.047 124.029 309.047 127.173C309.047 130.317 310.997 132.866 313.402 132.866Z"
                  fill="#3F3D56"/>
            <path opacity="0.1"
                  d="M297.105 79.5336C296.507 78.7792 295.965 77.9825 295.482 77.1498L306.922 75.2725L294.551 75.3646C293.364 72.7832 292.716 69.987 292.648 67.147C292.579 64.3069 293.091 61.4828 294.151 58.8471L310.751 67.4562L295.441 56.2025C296.873 53.7206 298.801 51.5603 301.106 49.8564C303.41 48.1525 306.042 46.9417 308.835 46.2994C311.629 45.6571 314.525 45.5972 317.343 46.1234C320.161 46.6496 322.84 47.7506 325.213 49.3577C327.586 50.9649 329.602 53.0436 331.135 55.4641C332.669 57.8847 333.686 60.5951 334.125 63.4262C334.563 66.2573 334.413 69.1483 333.683 71.9188C332.954 74.6893 331.66 77.2797 329.884 79.5285C330.811 80.7072 331.609 81.9813 332.265 83.3292L317.421 91.038L333.252 85.7283C334.364 89.0127 334.639 92.5224 334.052 95.9398C333.465 99.3571 332.034 102.574 329.89 105.3C332.312 108.373 333.821 112.065 334.242 115.955C334.663 119.845 333.98 123.775 332.271 127.295C330.563 130.815 327.897 133.783 324.579 135.859C321.261 137.936 317.425 139.037 313.51 139.037C309.595 139.037 305.759 137.936 302.441 135.859C299.123 133.783 296.457 130.815 294.748 127.295C293.039 123.775 292.357 119.845 292.778 115.955C293.199 112.065 294.707 108.373 297.13 105.3C294.239 101.626 292.666 97.088 292.666 92.4141C292.666 87.7401 294.239 83.2019 297.13 79.5285L297.105 79.5336Z"
                  fill="#6C63FF"/>
            <path opacity="0.1"
                  d="M334.348 92.4192C334.355 97.0942 332.782 101.635 329.884 105.305C332.307 108.378 333.816 112.071 334.237 115.96C334.658 119.85 333.975 123.78 332.266 127.3C330.557 130.82 327.891 133.788 324.574 135.865C321.256 137.941 317.42 139.043 313.505 139.043C309.59 139.043 305.754 137.941 302.436 135.865C299.118 133.788 296.452 130.82 294.743 127.3C293.034 123.78 292.351 119.85 292.773 115.96C293.194 112.071 294.702 108.378 297.125 105.305C294.32 101.76 334.348 90.0815 334.348 92.4192Z"
                  fill="black"/>
        </g>
        <g opacity="0.1">
            <path opacity="0.1"
                  d="M531.609 172.398C534.826 172.398 537.434 168.985 537.434 164.776C537.434 160.566 534.826 157.154 531.609 157.154C528.392 157.154 525.784 160.566 525.784 164.776C525.784 168.985 528.392 172.398 531.609 172.398Z"
                  fill="#3F3D56"/>
            <path opacity="0.1"
                  d="M526.997 132.166C526.184 130.748 525.764 129.139 525.779 127.505C525.779 123.296 528.389 119.884 531.609 119.884C534.828 119.884 537.434 123.296 537.434 127.505C537.449 129.139 537.028 130.748 536.216 132.166C537.014 133.588 537.434 135.192 537.434 136.823C537.434 138.454 537.014 140.058 536.216 141.481C537.014 142.903 537.434 144.507 537.434 146.138C537.434 147.769 537.014 149.373 536.216 150.796C537.03 152.213 537.45 153.822 537.434 155.456C537.434 159.661 534.823 163.078 531.609 163.078C528.394 163.078 525.779 159.661 525.779 155.456C525.762 153.822 526.183 152.213 526.997 150.796C526.198 149.373 525.779 147.769 525.779 146.138C525.779 144.507 526.198 142.903 526.997 141.481C526.198 140.058 525.779 138.454 525.779 136.823C525.779 135.192 526.198 133.588 526.997 132.166Z"
                  fill="#3F3D56"/>
            <path opacity="0.1"
                  d="M531.609 125.823C534.826 125.823 537.434 122.41 537.434 118.201C537.434 113.991 534.826 110.579 531.609 110.579C528.392 110.579 525.784 113.991 525.784 118.201C525.784 122.41 528.392 125.823 531.609 125.823Z"
                  fill="#3F3D56"/>
            <path opacity="0.1"
                  d="M531.609 116.507C534.826 116.507 537.434 113.095 537.434 108.886C537.434 104.676 534.826 101.264 531.609 101.264C528.392 101.264 525.784 104.676 525.784 108.886C525.784 113.095 528.392 116.507 531.609 116.507Z"
                  fill="#3F3D56"/>
            <path opacity="0.1"
                  d="M553.414 45.1329C554.212 44.1216 554.938 43.055 555.585 41.9409L540.28 39.4292L556.833 39.552C558.418 36.097 559.281 32.3552 559.369 28.5556C559.457 24.7559 558.768 20.9782 557.345 17.4537L535.136 28.9683L555.61 13.9189C553.707 10.5748 551.131 7.66028 548.046 5.35867C544.962 3.05706 541.434 1.4181 537.684 0.544828C533.935 -0.328448 530.045 -0.41716 526.26 0.284268C522.475 0.985695 518.876 2.46209 515.689 4.62066C512.502 6.77922 509.797 9.57328 507.742 12.8272C505.688 16.0811 504.33 19.7245 503.753 23.5283C503.175 27.3322 503.392 31.2143 504.388 34.9305C505.385 38.6468 507.139 42.1169 509.543 45.1226C508.302 46.6982 507.234 48.403 506.359 50.2073L526.234 60.5505L505.048 53.4453C503.559 57.8404 503.191 62.5372 503.977 67.1105C504.762 71.6837 506.677 75.9888 509.548 79.6359C506.31 83.7496 504.295 88.6908 503.735 93.8947C503.174 99.0986 504.09 104.355 506.378 109.063C508.666 113.771 512.234 117.741 516.673 120.518C521.112 123.295 526.244 124.768 531.481 124.768C536.718 124.768 541.85 123.295 546.289 120.518C550.728 117.741 554.296 113.771 556.584 109.063C558.872 104.355 559.788 99.0986 559.227 93.8947C558.667 88.6908 556.652 83.7496 553.414 79.6359C557.284 74.7201 559.388 68.6469 559.388 62.3921C559.388 56.1373 557.284 50.0641 553.414 45.1482V45.1329Z"
                  fill="#6C63FF"/>
            <path opacity="0.1"
                  d="M503.574 62.3767C503.564 68.6331 505.669 74.7095 509.548 79.6206C506.309 83.7342 504.295 88.6754 503.735 93.8793C503.174 99.0832 504.09 104.34 506.378 109.048C508.666 113.756 512.234 117.726 516.673 120.503C521.112 123.28 526.244 124.753 531.481 124.753C536.718 124.753 541.85 123.28 546.289 120.503C550.728 117.726 554.296 113.756 556.584 109.048C558.872 104.34 559.788 99.0832 559.227 93.8793C558.667 88.6754 556.652 83.7342 553.414 79.6206C557.156 74.8735 503.574 59.2461 503.574 62.3767Z"
                  fill="black"/>
        </g>
        <g opacity="0.1">
            <path opacity="0.1"
                  d="M475.376 171.564C477.782 171.564 479.732 169.015 479.732 165.871C479.732 162.726 477.782 160.177 475.376 160.177C472.97 160.177 471.02 162.726 471.02 165.871C471.02 169.015 472.97 171.564 475.376 171.564Z"
                  fill="#3F3D56"/>
            <path opacity="0.1"
                  d="M471.936 141.506C471.331 140.448 471.018 139.247 471.03 138.028C471.03 134.882 472.98 132.329 475.381 132.329C477.782 132.329 479.737 134.887 479.737 138.028C479.75 139.248 479.435 140.449 478.826 141.506C479.423 142.569 479.737 143.768 479.737 144.987C479.737 146.206 479.423 147.405 478.826 148.468C479.423 149.531 479.737 150.73 479.737 151.949C479.737 153.168 479.423 154.367 478.826 155.43C479.435 156.487 479.75 157.689 479.737 158.909C479.737 162.055 477.787 164.607 475.381 164.607C472.975 164.607 471.03 162.049 471.03 158.909C471.018 157.689 471.331 156.489 471.936 155.43C471.344 154.366 471.033 153.167 471.033 151.949C471.033 150.731 471.344 149.533 471.936 148.468C471.344 147.404 471.033 146.205 471.033 144.987C471.033 143.769 471.344 142.571 471.936 141.506Z"
                  fill="#3F3D56"/>
            <path opacity="0.1"
                  d="M475.376 136.759C477.782 136.759 479.732 134.21 479.732 131.066C479.732 127.921 477.782 125.372 475.376 125.372C472.97 125.372 471.02 127.921 471.02 131.066C471.02 134.21 472.97 136.759 475.376 136.759Z"
                  fill="#3F3D56"/>
            <path opacity="0.1"
                  d="M475.376 129.797C477.782 129.797 479.732 127.248 479.732 124.104C479.732 120.959 477.782 118.41 475.376 118.41C472.97 118.41 471.02 120.959 471.02 124.104C471.02 127.248 472.97 129.797 475.376 129.797Z"
                  fill="#3F3D56"/>
            <path opacity="0.1"
                  d="M491.674 76.4644C492.271 75.7099 492.813 74.9133 493.296 74.0806L481.856 72.2033L494.228 72.2954C495.415 69.7139 496.062 66.9178 496.131 64.0777C496.199 61.2377 495.688 58.4135 494.627 55.7779L478.027 64.387L493.337 53.1332C491.905 50.6514 489.977 48.4911 487.672 46.7872C485.368 45.0833 482.737 43.8724 479.943 43.2302C477.149 42.5879 474.253 42.528 471.435 43.0542C468.618 43.5804 465.939 44.6814 463.565 46.2885C461.192 47.8956 459.176 49.9744 457.643 52.3949C456.11 54.8155 455.092 57.5259 454.654 60.357C454.215 63.1881 454.366 66.0791 455.095 68.8496C455.825 71.6201 457.118 74.2105 458.894 76.4593C457.968 77.638 457.17 78.9121 456.514 80.26L471.358 87.9688L455.557 82.6642C454.445 85.9486 454.17 89.4583 454.757 92.8757C455.344 96.293 456.775 99.51 458.919 102.236C456.497 105.309 454.988 109.001 454.567 112.891C454.146 116.781 454.829 120.71 456.538 124.23C458.246 127.75 460.912 130.719 464.23 132.795C467.548 134.872 471.384 135.973 475.299 135.973C479.214 135.973 483.05 134.872 486.368 132.795C489.686 130.719 492.352 127.75 494.061 124.23C495.77 120.71 496.453 116.781 496.031 112.891C495.61 109.001 494.102 105.309 491.679 102.236C494.57 98.5621 496.143 94.0239 496.143 89.35C496.143 84.676 494.57 80.1378 491.679 76.4644H491.674Z"
                  fill="#6C63FF"/>
            <path opacity="0.1"
                  d="M454.431 89.35C454.424 94.025 455.996 98.5654 458.894 102.236C456.471 105.309 454.963 109.001 454.541 112.891C454.12 116.781 454.803 120.71 456.512 124.23C458.221 127.751 460.887 130.719 464.205 132.795C467.523 134.872 471.359 135.973 475.274 135.973C479.188 135.973 483.024 134.872 486.342 132.795C489.66 130.719 492.326 127.751 494.035 124.23C495.744 120.71 496.427 116.781 496.006 112.891C495.584 109.001 494.076 105.309 491.653 102.236C494.458 98.6906 454.431 87.0122 454.431 89.35Z"
                  fill="black"/>
        </g>
        <g opacity="0.1">
            <path opacity="0.1"
                  d="M31.5255 172.398C34.7426 172.398 37.3505 168.985 37.3505 164.776C37.3505 160.566 34.7426 157.154 31.5255 157.154C28.3085 157.154 25.7006 160.566 25.7006 164.776C25.7006 168.985 28.3085 172.398 31.5255 172.398Z"
                  fill="#3F3D56"/>
            <path opacity="0.1"
                  d="M36.1323 132.166C36.9449 130.748 37.3654 129.139 37.3505 127.505C37.3505 123.295 34.74 119.884 31.5255 119.884C28.3111 119.884 25.7006 123.295 25.7006 127.505C25.6841 129.139 26.1028 130.747 26.9137 132.166C26.118 133.589 25.7002 135.192 25.7002 136.823C25.7002 138.454 26.118 140.057 26.9137 141.481C26.118 142.904 25.7002 144.508 25.7002 146.138C25.7002 147.769 26.118 149.372 26.9137 150.796C26.1012 152.213 25.6824 153.822 25.7006 155.456C25.7006 159.661 28.3059 163.078 31.5255 163.078C34.7451 163.078 37.3659 159.671 37.3659 155.466C37.3822 153.832 36.9617 152.223 36.1477 150.806C36.9462 149.383 37.3656 147.779 37.3656 146.148C37.3656 144.517 36.9462 142.913 36.1477 141.491C36.9462 140.068 37.3656 138.464 37.3656 136.833C37.3656 135.202 36.9462 133.598 36.1477 132.176L36.1323 132.166Z"
                  fill="#3F3D56"/>
            <path opacity="0.1"
                  d="M31.5255 125.822C34.7426 125.822 37.3505 122.41 37.3505 118.201C37.3505 113.991 34.7426 110.579 31.5255 110.579C28.3085 110.579 25.7006 113.991 25.7006 118.201C25.7006 122.41 28.3085 125.822 31.5255 125.822Z"
                  fill="#3F3D56"/>
            <path opacity="0.1"
                  d="M31.5255 116.507C34.7426 116.507 37.3505 113.095 37.3505 108.885C37.3505 104.676 34.7426 101.264 31.5255 101.264C28.3085 101.264 25.7006 104.676 25.7006 108.885C25.7006 113.095 28.3085 116.507 31.5255 116.507Z"
                  fill="#3F3D56"/>
            <path opacity="0.1"
                  d="M9.72537 45.1328C8.92881 44.1204 8.20363 43.0538 7.55508 41.9408L22.8649 39.4292L6.2959 39.5775C4.71109 36.1226 3.84829 32.3808 3.76028 28.5811C3.67226 24.7814 4.3609 21.0038 5.78404 17.4792L27.9988 28.9939L7.52437 13.9445C9.43266 10.6103 12.0096 7.70596 15.0936 5.41357C18.1776 3.12118 21.7021 1.49015 25.4464 0.622729C29.1906 -0.244693 33.0738 -0.329814 36.8525 0.372706C40.6312 1.07523 44.224 2.55024 47.4056 4.70529C50.5872 6.86034 53.289 9.64896 55.3418 12.8963C57.3945 16.1437 58.7539 19.7799 59.3347 23.5769C59.9155 27.3738 59.7052 31.2498 58.717 34.9617C57.7288 38.6737 55.984 42.1416 53.5919 45.1482C54.8329 46.7238 55.9003 48.4285 56.7757 50.2328L36.895 60.5505L58.086 53.4453C59.5715 57.8411 59.9376 62.5377 59.1512 67.1104C58.3647 71.6831 56.4506 75.988 53.5816 79.6359C56.8198 83.7495 58.8343 88.6908 59.3948 93.8947C59.9553 99.0986 59.0392 104.355 56.7511 109.063C54.4631 113.771 50.8956 117.741 46.4564 120.518C42.0173 123.295 36.8857 124.768 31.6484 124.768C26.4111 124.768 21.2795 123.295 16.8404 120.518C12.4012 117.741 8.83365 113.771 6.54564 109.063C4.25763 104.355 3.34149 99.0986 3.90198 93.8947C4.46248 88.6908 6.47697 83.7495 9.71514 79.6359C5.84531 74.72 3.74138 68.6468 3.74138 62.392C3.74138 56.1373 5.84531 50.064 9.71514 45.1482L9.72537 45.1328Z"
                  fill="#6C63FF"/>
            <path opacity="0.1"
                  d="M59.5551 62.3766C59.5652 68.633 57.4602 74.7094 53.5816 79.6205C56.8198 83.7341 58.8343 88.6754 59.3948 93.8793C59.9553 99.0832 59.0392 104.34 56.7512 109.048C54.4631 113.756 50.8956 117.725 46.4564 120.503C42.0173 123.28 36.8857 124.753 31.6484 124.753C26.4111 124.753 21.2795 123.28 16.8404 120.503C12.4012 117.725 8.83365 113.756 6.54564 109.048C4.25763 104.34 3.34149 99.0832 3.90198 93.8793C4.46248 88.6754 6.47697 83.7341 9.71514 79.6205C5.97343 74.8734 59.5551 59.246 59.5551 62.3766Z"
                  fill="black"/>
        </g>
        <g opacity="0.1">
            <path opacity="0.1"
                  d="M87.7535 171.564C90.1592 171.564 92.1094 169.015 92.1094 165.871C92.1094 162.726 90.1592 160.177 87.7535 160.177C85.3478 160.177 83.3976 162.726 83.3976 165.871C83.3976 169.015 85.3478 171.564 87.7535 171.564Z"
                  fill="#3F3D56"/>
            <path opacity="0.1"
                  d="M91.1983 141.506C91.8038 140.448 92.1166 139.247 92.1043 138.028C92.1043 134.882 90.1592 132.329 87.7535 132.329C85.3477 132.329 83.3975 134.887 83.3975 138.028C83.3869 139.247 83.7013 140.448 84.3087 141.506C83.7114 142.569 83.3977 143.768 83.3977 144.987C83.3977 146.206 83.7114 147.405 84.3087 148.468C83.7114 149.531 83.3977 150.73 83.3977 151.949C83.3977 153.168 83.7114 154.367 84.3087 155.43C83.7013 156.488 83.3869 157.689 83.3975 158.909C83.3975 162.055 85.3477 164.607 87.7535 164.607C90.1592 164.607 92.1043 162.049 92.1043 158.909C92.1166 157.689 91.8038 156.489 91.1983 155.43C91.7908 154.366 92.1018 153.167 92.1018 151.949C92.1018 150.731 91.7908 149.533 91.1983 148.468C91.7908 147.404 92.1018 146.205 92.1018 144.987C92.1018 143.769 91.7908 142.571 91.1983 141.506Z"
                  fill="#3F3D56"/>
            <path opacity="0.1"
                  d="M87.7535 136.759C90.1592 136.759 92.1094 134.21 92.1094 131.066C92.1094 127.921 90.1592 125.372 87.7535 125.372C85.3478 125.372 83.3976 127.921 83.3976 131.066C83.3976 134.21 85.3478 136.759 87.7535 136.759Z"
                  fill="#3F3D56"/>
            <path opacity="0.1"
                  d="M87.7535 129.797C90.1592 129.797 92.1094 127.248 92.1094 124.104C92.1094 120.959 90.1592 118.41 87.7535 118.41C85.3478 118.41 83.3976 120.959 83.3976 124.104C83.3976 127.248 85.3478 129.797 87.7535 129.797Z"
                  fill="#3F3D56"/>
            <path opacity="0.1"
                  d="M71.4558 76.4644C70.8598 75.7087 70.3176 74.9122 69.8332 74.0806L81.2733 72.2033L68.9017 72.2954C67.7148 69.7139 67.0673 66.9178 66.9987 64.0777C66.93 61.2377 67.4417 58.4135 68.5024 55.7779L85.1021 64.387L69.7923 53.1332C71.2241 50.6514 73.1524 48.4911 75.4569 46.7872C77.7614 45.0833 80.3926 43.8724 83.1862 43.2302C85.9799 42.5879 88.876 42.528 91.6939 43.0542C94.5117 43.5804 97.1908 44.6814 99.5639 46.2885C101.937 47.8956 103.953 49.9744 105.486 52.3949C107.02 54.8154 108.037 57.5259 108.476 60.357C108.914 63.1881 108.764 66.0791 108.034 68.8496C107.305 71.6201 106.011 74.2105 104.235 76.4593C105.165 77.6355 105.963 78.91 106.616 80.26L91.7716 87.9688L107.603 82.6591C108.716 85.9435 108.99 89.4532 108.403 92.8705C107.816 96.2879 106.385 99.5049 104.241 102.23C106.664 105.304 108.172 108.996 108.593 112.886C109.014 116.776 108.331 120.705 106.623 124.225C104.914 127.745 102.248 130.714 98.9297 132.79C95.6118 134.867 91.7759 135.968 87.861 135.968C83.946 135.968 80.1102 134.867 76.7923 132.79C73.4743 130.714 70.8084 127.745 69.0994 124.225C67.3905 120.705 66.7076 116.776 67.1288 112.886C67.5501 108.996 69.0585 105.304 71.4814 102.23C68.5896 98.557 67.0175 94.0188 67.0175 89.3448C67.0175 84.6709 68.5896 80.1327 71.4814 76.4593L71.4558 76.4644Z"
                  fill="#6C63FF"/>
            <path opacity="0.1"
                  d="M108.699 89.35C108.706 94.025 107.133 98.5654 104.235 102.236C106.658 105.309 108.167 109.001 108.588 112.891C109.009 116.781 108.326 120.71 106.617 124.23C104.908 127.751 102.243 130.719 98.9246 132.795C95.6067 134.872 91.7708 135.973 87.8559 135.973C83.9409 135.973 80.1051 134.872 76.7871 132.795C73.4692 130.719 70.8033 127.751 69.0943 124.23C67.3854 120.71 66.7025 116.781 67.1237 112.891C67.5449 109.001 69.0533 105.309 71.4763 102.236C68.6611 98.6906 108.699 87.0122 108.699 89.35Z"
                  fill="black"/>
        </g>
        <path opacity="0.1"
              d="M280.5 256.786C435.416 256.786 561 254.757 561 252.254C561 249.751 435.416 247.721 280.5 247.721C125.584 247.721 0 249.751 0 252.254C0 254.757 125.584 256.786 280.5 256.786Z"
              fill="#6C63FF"/>
        <path opacity="0.1"
              d="M280.5 294C435.416 294 561 291.971 561 289.468C561 286.965 435.416 284.936 280.5 284.936C125.584 284.936 0 286.965 0 289.468C0 291.971 125.584 294 280.5 294Z"
              fill="#6C63FF"/>
        <path opacity="0.1"
              d="M280.5 179.119C435.416 179.119 561 177.09 561 174.587C561 172.084 435.416 170.055 280.5 170.055C125.584 170.055 0 172.084 0 174.587C0 177.09 125.584 179.119 280.5 179.119Z"
              fill="#6C63FF"/>
        <path opacity="0.1"
              d="M280.5 217.95C435.416 217.95 561 215.921 561 213.418C561 210.915 435.416 208.886 280.5 208.886C125.584 208.886 0 210.915 0 213.418C0 215.921 125.584 217.95 280.5 217.95Z"
              fill="#6C63FF"/>
        <path opacity="0.1"
              d="M413.988 56.4582C412.161 56.1133 410.272 56.3199 408.563 57.0516C407.536 57.5086 406.425 57.7447 405.302 57.7447C404.179 57.7447 403.068 57.5086 402.041 57.0516C400.827 56.519 399.512 56.2564 398.186 56.2821C396.86 56.3077 395.556 56.6209 394.364 57.1999C393.684 57.5607 392.927 57.7503 392.157 57.7524C389.045 57.7524 386.46 54.6218 385.923 50.4937C386.535 50.0375 387.056 49.47 387.459 48.821C389.281 45.8848 392.101 43.9972 395.275 43.9972C398.448 43.9972 401.233 45.8592 403.055 48.7647C403.598 49.6426 404.359 50.365 405.264 50.8616C406.169 51.3583 407.187 51.6122 408.22 51.5986H408.302C410.805 51.573 412.949 53.5578 413.988 56.4582Z"
              fill="#6C63FF"/>
        <path opacity="0.1"
              d="M423.463 43.4908L418.436 46.6725L421.508 41.1275C420.643 40.4395 419.573 40.0596 418.467 40.0481H418.385C418.042 40.0528 417.7 40.0271 417.361 39.9714L415.631 41.0508L416.363 39.7208C415.154 39.3024 414.109 38.5106 413.379 37.4598L410.308 39.3934L412.233 35.8945C410.451 33.7563 408.046 32.4467 405.404 32.4467C402.231 32.4467 399.41 34.3292 397.583 37.2654C397.044 38.1433 396.283 38.8632 395.376 39.352C394.469 39.8407 393.448 40.0809 392.418 40.0481H392.25C388.748 40.0481 385.913 44.0125 385.913 48.9028C385.913 53.7931 388.748 57.7626 392.25 57.7626C393.019 57.7575 393.775 57.568 394.456 57.2102C395.648 56.6296 396.952 56.3152 398.278 56.2887C399.604 56.2622 400.919 56.5242 402.134 57.0567C403.159 57.5169 404.27 57.7547 405.394 57.7547C406.518 57.7547 407.629 57.5169 408.655 57.0567C409.859 56.5362 411.162 56.2801 412.474 56.3056C413.786 56.3312 415.078 56.6379 416.261 57.205C416.934 57.5571 417.682 57.743 418.442 57.7473C421.943 57.7473 424.778 53.7778 424.778 48.8875C424.799 47.0068 424.347 45.151 423.463 43.4908Z"
              fill="#6C63FF"/>
        <path opacity="0.1"
              d="M200.271 53.6908C198.99 53.449 197.666 53.5932 196.468 54.1051C195.75 54.4255 194.973 54.5911 194.187 54.5911C193.402 54.5911 192.625 54.4255 191.907 54.1051C191.058 53.7324 190.138 53.549 189.21 53.5676C188.283 53.5861 187.371 53.8062 186.538 54.2126C186.063 54.4598 185.537 54.5913 185.002 54.5962C182.827 54.5962 181.015 52.4068 180.636 49.5167C181.07 49.1986 181.44 48.8011 181.726 48.3453C183.001 46.2991 184.976 44.9691 187.198 44.9691C189.419 44.9691 191.37 46.2735 192.644 48.3043C193.025 48.9191 193.558 49.4249 194.192 49.7727C194.826 50.1205 195.54 50.2984 196.263 50.2891H196.319C198.039 50.2789 199.539 51.6702 200.271 53.6908Z"
              fill="#6C63FF"/>
        <path opacity="0.1"
              d="M206.899 44.6212L203.383 46.8515L205.517 42.9689C204.914 42.4862 204.166 42.2197 203.393 42.2119H203.332C203.088 42.2162 202.845 42.1974 202.605 42.1556L201.412 42.9127L201.924 41.9817C201.079 41.6878 200.348 41.1346 199.836 40.401L197.701 41.7515L199.053 39.3063C198.485 38.574 197.762 37.977 196.935 37.5585C196.108 37.14 195.198 36.9106 194.272 36.8868C192.05 36.8868 190.075 38.2065 188.8 40.2629C188.422 40.8777 187.889 41.3818 187.253 41.7241C186.618 42.0664 185.903 42.2346 185.181 42.2119H185.063C182.612 42.2119 180.626 44.9844 180.626 48.4117C180.626 51.839 182.612 54.6115 185.063 54.6115C185.599 54.6073 186.126 54.474 186.599 54.2227C187.432 53.8186 188.344 53.6002 189.27 53.5825C190.196 53.5648 191.115 53.7484 191.963 54.1204C192.685 54.4494 193.468 54.6237 194.262 54.6319C195.043 54.6306 195.815 54.4668 196.529 54.1511C197.372 53.7865 198.284 53.607 199.202 53.6246C200.12 53.6423 201.024 53.8567 201.853 54.2534C202.326 54.5015 202.853 54.6314 203.388 54.6319C205.835 54.6319 207.821 51.8543 207.821 48.4321C207.842 47.1044 207.524 45.7931 206.899 44.6212Z"
              fill="#6C63FF"/>
        <path opacity="0.1"
              d="M137.993 93.8003C139.272 93.5589 140.594 93.7031 141.791 94.2146C142.509 94.5351 143.287 94.7008 144.074 94.7008C144.86 94.7008 145.638 94.5351 146.356 94.2146C147.206 93.8425 148.125 93.6589 149.052 93.6766C149.979 93.6942 150.892 93.9127 151.726 94.3169C152.199 94.5688 152.726 94.7022 153.262 94.7057C155.437 94.7057 157.249 92.5112 157.623 89.621C157.189 89.3041 156.82 88.9063 156.537 88.4496C155.258 86.4035 153.282 85.0786 151.066 85.0786C148.849 85.0786 146.894 86.3779 145.614 88.4138C145.234 89.0278 144.702 89.5332 144.068 89.8809C143.435 90.2287 142.723 90.407 142.001 90.3986H141.944C140.219 90.4088 138.714 91.7951 137.993 93.8003Z"
              fill="#6C63FF"/>
        <path opacity="0.1"
              d="M131.359 84.7461L134.881 86.9764L132.741 83.0989C133.346 82.6147 134.095 82.3464 134.87 82.3368H134.927C135.172 82.3403 135.416 82.3232 135.659 82.2856L136.851 83.0376L136.339 82.1117C137.183 81.8172 137.912 81.264 138.423 80.531L140.557 81.8815L139.226 79.4312C139.794 78.6996 140.518 78.1033 141.344 77.6857C142.171 77.2681 143.081 77.0396 144.007 77.0168C146.223 77.0168 148.204 78.3366 149.479 80.3929C149.856 81.007 150.389 81.5106 151.024 81.8528C151.658 82.195 152.372 82.3637 153.093 82.3419H153.215C155.662 82.3419 157.648 85.1195 157.648 88.5417C157.648 91.9639 155.662 94.7415 153.215 94.7415C152.68 94.7391 152.153 94.6075 151.68 94.3578C150.846 93.9515 149.934 93.7314 149.007 93.7128C148.08 93.6943 147.16 93.8777 146.31 94.2504C145.591 94.5823 144.809 94.7567 144.017 94.762C143.235 94.7613 142.461 94.5975 141.745 94.2811C140.903 93.9166 139.992 93.7371 139.074 93.7548C138.157 93.7724 137.254 93.9868 136.426 94.3834C135.953 94.6315 135.426 94.7614 134.891 94.762C132.439 94.762 130.453 91.9894 130.453 88.5622C130.429 87.2342 130.741 85.9217 131.359 84.7461Z"
              fill="#6C63FF"/>
        <path d="M340.035 250.785C341.371 248.31 339.855 245.281 338.115 243.077C336.375 240.872 334.245 238.575 334.292 235.767C334.358 231.731 338.647 229.342 342.072 227.204C344.615 225.61 346.96 223.721 349.059 221.577C349.936 220.751 350.662 219.778 351.203 218.702C351.915 217.126 351.894 215.326 351.848 213.587C351.702 207.827 351.417 202.07 350.993 196.317"
              stroke="#3F3D56" stroke-width="4" stroke-miterlimit="10"/>
        <path d="M357.509 196.031C357.46 194.976 357.146 193.95 356.596 193.048C356.046 192.146 355.277 191.397 354.362 190.869L352.949 193.657L352.995 190.281C351.714 189.904 350.346 189.944 349.088 190.394C347.831 190.845 346.75 191.683 346 192.787C345.251 193.892 344.872 195.206 344.918 196.54C344.964 197.874 345.434 199.159 346.258 200.209C347.083 201.259 348.22 202.02 349.505 202.382C350.791 202.745 352.158 202.689 353.41 202.224C354.662 201.759 355.734 200.909 356.471 199.796C357.207 198.682 357.571 197.364 357.509 196.031Z"
              fill="#F6635A"/>
        <path d="M346.269 238.652C345.635 239.883 344.613 240.871 343.361 241.463C342.108 242.055 340.695 242.218 339.341 241.927C337.986 241.636 336.766 240.907 335.868 239.852C334.97 238.798 334.445 237.477 334.373 236.094C334.326 235.222 334.466 234.35 334.783 233.536C335.247 232.35 336.06 231.331 337.115 230.616C338.17 229.9 339.417 229.521 340.692 229.528C341.967 229.535 343.21 229.929 344.257 230.656C345.304 231.383 346.105 232.411 346.556 233.603L342.62 236.805L346.95 235.782C346.955 236.779 346.721 237.763 346.269 238.652Z"
              fill="#F6635A"/>
        <path d="M343.157 226.426C341.611 226.499 340.092 226 338.89 225.025C337.688 224.05 336.887 222.667 336.64 221.14C336.393 219.613 336.718 218.048 337.551 216.745C338.385 215.441 339.67 214.49 341.161 214.073L341.125 216.666L342.553 213.842C344.223 213.764 345.855 214.352 347.091 215.477C348.327 216.602 349.065 218.171 349.143 219.84C349.221 221.509 348.633 223.14 347.507 224.375C346.382 225.61 344.811 226.348 343.142 226.426H343.157Z"
              fill="#F6635A"/>
        <path d="M358.457 216.252C357.48 216.302 356.504 216.125 355.608 215.733C354.712 215.341 353.919 214.747 353.292 213.996C352.666 213.245 352.223 212.359 351.998 211.407C351.774 210.456 351.774 209.465 352 208.514C352.225 207.562 352.668 206.676 353.296 205.926C353.923 205.176 354.716 204.582 355.613 204.191C356.509 203.8 357.485 203.623 358.462 203.675C359.439 203.726 360.39 204.004 361.241 204.486L360.13 207.556L362.398 205.315C363.315 206.155 363.963 207.248 364.259 208.456C364.556 209.663 364.488 210.932 364.064 212.101C363.64 213.27 362.88 214.288 361.878 215.025C360.877 215.763 359.679 216.188 358.436 216.247L358.457 216.252Z"
              fill="#F6635A"/>
        <path opacity="0.1"
              d="M356.66 197.709C355.206 197.867 353.793 198.317 352.33 198.409C350.866 198.501 349.258 198.148 348.347 197.018C347.919 196.359 347.529 195.676 347.18 194.972C346.782 194.351 346.237 193.838 345.593 193.478C345.186 194.276 344.953 195.152 344.911 196.047C344.869 196.942 345.019 197.836 345.351 198.668C345.682 199.501 346.187 200.253 346.833 200.875C347.478 201.497 348.249 201.974 349.094 202.274C349.939 202.574 350.838 202.691 351.731 202.616C352.625 202.541 353.492 202.277 354.275 201.84C355.058 201.404 355.739 200.805 356.272 200.085C356.805 199.364 357.178 198.539 357.366 197.662C357.136 197.668 356.895 197.683 356.66 197.709Z"
              fill="black"/>
        <path opacity="0.1"
              d="M358.456 216.252C357.37 216.303 356.289 216.073 355.318 215.583C354.347 215.093 353.52 214.36 352.916 213.455C352.313 212.551 351.954 211.506 351.874 210.422C351.795 209.338 351.997 208.252 352.463 207.269C352.962 207.606 353.391 208.037 353.727 208.538C354.103 209.255 354.52 209.95 354.976 210.62C355.959 211.771 357.637 212.154 359.158 212.078C360.678 212.001 362.147 211.566 363.662 211.438C363.872 211.438 364.082 211.407 364.297 211.402C363.983 212.735 363.243 213.93 362.19 214.805C361.136 215.68 359.825 216.188 358.456 216.252Z"
              fill="black"/>
        <path opacity="0.1"
              d="M343.157 226.426C342.082 226.476 341.012 226.251 340.048 225.77C339.085 225.29 338.261 224.571 337.655 223.682C337.049 222.793 336.681 221.764 336.586 220.692C336.491 219.621 336.672 218.543 337.112 217.561C337.631 217.903 338.084 218.336 338.448 218.84C338.861 219.574 339.317 220.283 339.814 220.963C340.874 222.145 342.666 222.564 344.273 222.498C345.88 222.431 347.344 222.083 348.88 221.986C348.497 223.224 347.743 224.314 346.719 225.108C345.695 225.903 344.452 226.363 343.157 226.426Z"
              fill="black"/>
        <path opacity="0.1"
              d="M346.269 238.652C345.635 239.883 344.613 240.871 343.361 241.463C342.108 242.055 340.695 242.218 339.341 241.927C337.986 241.636 336.766 240.907 335.868 239.852C334.97 238.798 334.445 237.477 334.373 236.094C334.326 235.222 334.466 234.35 334.783 233.536C335.302 233.877 335.768 234.292 336.165 234.769C336.764 235.496 337.158 236.304 337.854 237.005C339.139 238.268 341.222 238.79 343.07 238.836C344.139 238.839 345.207 238.778 346.269 238.652Z"
              fill="black"/>
        <path d="M27.7992 213.955C29.1352 211.479 27.62 208.451 25.8797 206.246C24.1394 204.041 22.01 201.734 22.0561 198.936C22.1227 194.9 26.4121 192.511 29.8364 190.373C32.3794 188.78 34.7247 186.891 36.8233 184.746C37.701 183.921 38.4269 182.948 38.968 181.871C39.6795 180.296 39.659 178.495 39.613 176.756C39.4628 170.996 39.1779 165.24 38.7581 159.487"
              stroke="#3F3D56" stroke-width="4" stroke-miterlimit="10"/>
        <path d="M45.2741 159.2C45.2247 158.145 44.9105 157.119 44.3604 156.217C43.8103 155.315 43.042 154.566 42.1262 154.039L40.7134 156.827L40.7595 153.45C39.4783 153.073 38.1104 153.113 36.8531 153.564C35.5959 154.014 34.5144 154.852 33.7648 155.957C33.0152 157.062 32.6363 158.376 32.6826 159.71C32.729 161.044 33.1983 162.328 34.0228 163.378C34.8473 164.428 35.9843 165.19 37.2698 165.552C38.5553 165.914 39.9227 165.859 41.1746 165.394C42.4266 164.929 43.4983 164.078 44.2352 162.965C44.972 161.852 45.3358 160.533 45.2741 159.2Z"
              fill="#F6635A"/>
        <path d="M34.0337 201.821C33.3998 203.052 32.3776 204.041 31.1251 204.633C29.8727 205.225 28.4599 205.388 27.1054 205.096C25.7509 204.805 24.5302 204.076 23.6323 203.022C22.7343 201.967 22.2091 200.646 22.138 199.264C22.0909 198.392 22.2305 197.52 22.5475 196.706C23.0116 195.519 23.8247 194.501 24.8796 193.785C25.9346 193.07 27.1818 192.69 28.4568 192.698C29.7318 192.705 30.9746 193.098 32.0214 193.825C33.0682 194.553 33.8697 195.58 34.3203 196.772L30.3841 199.975L34.7145 198.951C34.7194 199.949 34.486 200.932 34.0337 201.821Z"
              fill="#F6635A"/>
        <path d="M30.9215 189.596C29.3752 189.668 27.8561 189.17 26.6542 188.195C25.4522 187.22 24.6514 185.837 24.4046 184.309C24.1578 182.782 24.4823 181.217 25.316 179.914C26.1498 178.61 27.4346 177.659 28.9253 177.242L28.8895 179.835L30.3175 177.012C31.1443 176.973 31.9706 177.098 32.7493 177.378C33.5279 177.659 34.2437 178.09 34.8556 178.647C35.4676 179.204 35.9638 179.876 36.3159 180.624C36.668 181.373 36.8691 182.183 36.9078 183.01C36.9464 183.836 36.8218 184.662 36.5411 185.44C36.2605 186.218 35.8291 186.933 35.2718 187.545C34.7146 188.156 34.0422 188.652 33.2931 189.004C32.5441 189.356 31.733 189.557 30.9062 189.596H30.9215Z"
              fill="#F6635A"/>
        <path d="M46.2211 179.421C45.2441 179.472 44.2688 179.294 43.3725 178.902C42.4761 178.511 41.6832 177.916 41.0567 177.165C40.4302 176.415 39.9872 175.528 39.7628 174.577C39.5385 173.625 39.5389 172.634 39.7641 171.683C39.9892 170.732 40.433 169.846 41.0601 169.095C41.6873 168.345 42.4806 167.751 43.3773 167.36C44.274 166.97 45.2494 166.793 46.2263 166.844C47.2032 166.895 48.1548 167.173 49.0056 167.656L47.8949 170.725L50.1624 168.484C51.0795 169.325 51.7272 170.418 52.0237 171.625C52.3202 172.833 52.2523 174.101 51.8286 175.27C51.4049 176.439 50.6443 177.457 49.6427 178.195C48.6412 178.933 47.4435 179.357 46.2006 179.416L46.2211 179.421Z"
              fill="#F6635A"/>
        <path opacity="0.1"
              d="M44.4244 160.878C42.9707 161.037 41.558 161.487 40.0941 161.579C38.6302 161.671 37.0229 161.318 36.1118 160.187C35.6833 159.529 35.2936 158.845 34.9448 158.141C34.5468 157.52 34.0018 157.007 33.358 156.648C32.9503 157.446 32.7178 158.321 32.6759 159.216C32.6341 160.112 32.7838 161.005 33.1152 161.838C33.4465 162.67 33.9519 163.423 34.5974 164.045C35.243 164.666 36.0139 165.143 36.8587 165.444C37.7034 165.744 38.6026 165.86 39.496 165.786C40.3895 165.711 41.2567 165.446 42.0397 165.01C42.8227 164.573 43.5035 163.975 44.0366 163.254C44.5696 162.534 44.9427 161.708 45.1308 160.832C44.9005 160.837 44.6599 160.852 44.4244 160.878Z"
              fill="black"/>
        <path opacity="0.1"
              d="M46.2211 179.421C45.1346 179.473 44.0534 179.242 43.0825 178.752C42.1116 178.262 41.2842 177.529 40.6808 176.625C40.0773 175.721 39.7184 174.675 39.6389 173.591C39.5594 172.507 39.7621 171.421 40.2272 170.439C40.7267 170.776 41.156 171.207 41.4915 171.707C41.8679 172.424 42.2849 173.119 42.7404 173.789C43.7232 174.94 45.4021 175.324 46.9223 175.247C48.4425 175.17 49.9116 174.735 51.4267 174.608C51.6366 174.608 51.8464 174.577 52.0614 174.572C51.7479 175.905 51.0081 177.099 49.9542 177.974C48.9004 178.849 47.5898 179.357 46.2211 179.421Z"
              fill="black"/>
        <path opacity="0.1"
              d="M30.9215 189.596C29.8463 189.646 28.7761 189.42 27.813 188.94C26.8499 188.459 26.0259 187.741 25.4198 186.852C24.8136 185.963 24.4454 184.933 24.3503 183.862C24.2552 182.79 24.4363 181.712 24.8765 180.731C25.3958 181.072 25.8485 181.506 26.2124 182.009C26.6252 182.744 27.0815 183.453 27.5791 184.132C28.6386 185.314 30.4302 185.733 32.0374 185.667C33.6446 185.6 35.1086 185.253 36.6441 185.155C36.262 186.393 35.5077 187.483 34.4839 188.278C33.46 189.072 32.2162 189.532 30.9215 189.596Z"
              fill="black"/>
        <path opacity="0.1"
              d="M34.0337 201.821C33.3998 203.052 32.3776 204.041 31.1251 204.633C29.8727 205.225 28.4599 205.388 27.1054 205.097C25.7509 204.805 24.5302 204.076 23.6323 203.022C22.7343 201.967 22.2091 200.646 22.138 199.264C22.0909 198.392 22.2305 197.52 22.5475 196.706C23.0665 197.046 23.5323 197.462 23.9295 197.939C24.5284 198.665 24.9225 199.473 25.6187 200.174C26.9034 201.438 28.9867 201.959 30.8345 202.005C31.9037 202.009 32.972 201.947 34.0337 201.821Z"
              fill="black"/>
        <path d="M235.722 171.82C234.386 169.349 235.902 166.321 237.647 164.116C239.392 161.911 241.511 159.615 241.465 156.806C241.404 152.765 237.115 150.381 233.685 148.243C231.143 146.65 228.799 144.762 226.703 142.616C225.822 141.795 225.094 140.823 224.554 139.746C223.847 138.166 223.868 136.37 223.909 134.631C224.062 128.871 224.347 123.115 224.763 117.362"
              stroke="#3F3D56" stroke-width="4" stroke-miterlimit="10"/>
        <path d="M218.253 117.07C218.301 116.015 218.614 114.99 219.163 114.088C219.713 113.186 220.48 112.436 221.395 111.909L222.808 114.697L222.767 111.32C223.44 111.125 224.14 111.04 224.84 111.07C226.085 111.128 227.284 111.553 228.287 112.292C229.29 113.032 230.051 114.051 230.474 115.223C230.897 116.394 230.963 117.665 230.663 118.873C230.364 120.082 229.712 121.175 228.791 122.014C227.87 122.853 226.721 123.4 225.489 123.586C224.257 123.772 222.997 123.589 221.869 123.06C220.741 122.531 219.796 121.679 219.152 120.613C218.508 119.547 218.195 118.314 218.253 117.07Z"
              fill="#F6635A"/>
        <path d="M229.488 159.691C230.148 160.976 231.231 161.995 232.554 162.577C233.877 163.159 235.361 163.269 236.755 162.888C238.15 162.507 239.371 161.658 240.213 160.484C241.056 159.31 241.469 157.882 241.383 156.44C241.297 154.998 240.717 153.629 239.741 152.563C238.765 151.497 237.452 150.799 236.022 150.586C234.592 150.373 233.133 150.658 231.888 151.392C230.643 152.127 229.689 153.267 229.186 154.622L233.122 157.824L228.792 156.801C228.788 157.806 229.027 158.798 229.488 159.691Z"
              fill="#F6635A"/>
        <path d="M232.6 147.466C234.147 147.54 235.667 147.042 236.87 146.068C238.073 145.093 238.875 143.71 239.123 142.182C239.37 140.654 239.046 139.089 238.212 137.785C237.378 136.481 236.093 135.529 234.601 135.112L234.632 137.705L233.204 134.882C231.535 134.8 229.902 135.384 228.663 136.505C227.425 137.626 226.683 139.194 226.601 140.862C226.565 141.588 226.657 142.315 226.872 143.01C227.25 144.253 228.003 145.348 229.029 146.146C230.054 146.943 231.302 147.404 232.6 147.466Z"
              fill="#F6635A"/>
        <path d="M217.306 137.281C218.282 137.331 219.257 137.152 220.153 136.76C221.049 136.368 221.842 135.773 222.468 135.022C223.094 134.271 223.536 133.385 223.76 132.433C223.984 131.482 223.983 130.491 223.757 129.54C223.532 128.589 223.088 127.703 222.461 126.953C221.833 126.204 221.04 125.61 220.143 125.219C219.247 124.829 218.271 124.652 217.295 124.704C216.318 124.755 215.367 125.033 214.516 125.516L215.632 128.585L213.339 126.39C212.727 126.944 212.231 127.613 211.88 128.36C211.528 129.106 211.328 129.914 211.291 130.738C211.261 131.321 211.314 131.905 211.45 132.472C211.771 133.801 212.516 134.988 213.573 135.856C214.629 136.723 215.939 137.224 217.306 137.281Z"
              fill="#F6635A"/>
        <path opacity="0.1"
              d="M219.102 118.748C220.556 118.906 221.969 119.357 223.427 119.449C224.886 119.541 226.499 119.188 227.415 118.057C227.842 117.398 228.23 116.715 228.577 116.011C228.977 115.39 229.523 114.877 230.169 114.517C230.577 115.316 230.81 116.192 230.852 117.088C230.895 117.983 230.745 118.877 230.414 119.711C230.082 120.544 229.577 121.297 228.931 121.919C228.285 122.541 227.513 123.018 226.668 123.318C225.822 123.618 224.922 123.734 224.028 123.659C223.134 123.583 222.267 123.318 221.484 122.881C220.701 122.443 220.02 121.844 219.488 121.122C218.955 120.4 218.583 119.574 218.396 118.697C218.626 118.702 218.862 118.722 219.102 118.748Z"
              fill="black"/>
        <path opacity="0.1"
              d="M217.306 137.281C218.392 137.331 219.472 137.099 220.442 136.609C221.412 136.118 222.239 135.386 222.842 134.482C223.445 133.578 223.804 132.534 223.884 131.45C223.964 130.367 223.763 129.281 223.299 128.298C222.798 128.635 222.367 129.066 222.03 129.567C221.654 130.284 221.237 130.979 220.781 131.649C219.803 132.8 218.125 133.183 216.604 133.107C215.084 133.03 213.615 132.595 212.1 132.467C211.89 132.467 211.675 132.437 211.465 132.431C211.778 133.765 212.518 134.96 213.572 135.835C214.626 136.71 215.937 137.218 217.306 137.281Z"
              fill="black"/>
        <path opacity="0.1"
              d="M232.6 147.466C233.676 147.517 234.747 147.292 235.711 146.813C236.675 146.333 237.499 145.614 238.106 144.724C238.712 143.835 239.08 142.805 239.175 141.733C239.269 140.661 239.087 139.582 238.645 138.601C238.126 138.941 237.675 139.375 237.314 139.879C236.902 140.614 236.445 141.323 235.948 142.002C234.883 143.184 233.097 143.603 231.484 143.537C229.872 143.47 228.413 143.123 226.877 143.025C227.258 144.264 228.011 145.356 229.036 146.15C230.06 146.945 231.305 147.404 232.6 147.466Z"
              fill="black"/>
        <path opacity="0.1"
              d="M229.488 159.691C230.228 161.116 231.484 162.205 233 162.735C234.516 163.265 236.178 163.197 237.645 162.544C239.112 161.891 240.275 160.702 240.894 159.221C241.514 157.74 241.544 156.078 240.979 154.576C240.458 154.913 239.992 155.329 239.597 155.809C238.998 156.535 238.573 157.343 237.908 158.044C236.618 159.308 234.54 159.829 232.687 159.875C231.618 159.876 230.55 159.814 229.488 159.691Z"
              fill="black"/>
        <path d="M399.114 172.971C427.372 172.971 450.279 150.078 450.279 121.838C450.279 93.5975 427.372 70.7045 399.114 70.7045C370.856 70.7045 347.948 93.5975 347.948 121.838C347.948 150.078 370.856 172.971 399.114 172.971Z"
              fill="#3F3D56"/>
        <path d="M421.078 135.025C419.296 133.245 415.012 130.559 412.888 129.557C410.436 128.38 409.535 128.401 407.8 129.654C406.356 130.677 405.42 131.664 403.761 131.301C402.103 130.938 398.817 128.462 395.638 125.296C392.459 122.129 389.992 118.866 389.639 117.183C389.286 115.5 390.258 114.584 391.292 113.141C392.541 111.407 392.577 110.507 391.39 108.057C390.366 105.934 387.709 101.663 385.913 99.8722C384.116 98.0818 383.727 98.4757 382.744 98.8491C381.733 99.2728 380.762 99.7864 379.842 100.384C378.061 101.576 377.063 102.568 376.361 104.062C375.66 105.555 374.867 108.328 378.946 115.587C381.956 121.139 385.767 126.219 390.258 130.662C394.719 135.16 399.819 138.976 405.394 141.987C412.652 146.079 415.432 145.266 416.926 144.57C418.421 143.875 419.414 142.887 420.602 141.092C421.2 140.173 421.714 139.203 422.137 138.191C422.475 137.209 422.874 136.81 421.078 135.025Z"
              fill="#F6635A"/>
        <path opacity="0.1"
              d="M399.114 70.7096C388.988 70.7045 379.088 73.701 370.666 79.3199C362.245 84.9388 355.68 92.9276 351.803 102.276C347.926 111.624 346.91 121.911 348.884 131.836C350.858 141.762 355.734 150.879 362.894 158.034C370.054 165.19 379.177 170.062 389.108 172.035C399.04 174.008 409.334 172.993 418.688 169.118C428.042 165.243 436.036 158.683 441.658 150.267C447.281 141.851 450.279 131.957 450.274 121.838C450.267 108.28 444.875 95.279 435.282 85.6921C425.689 76.1053 412.68 70.7164 399.114 70.7096ZM399.114 166.172C390.339 166.172 381.762 163.572 374.467 158.701C367.171 153.829 361.485 146.905 358.128 138.804C354.77 130.703 353.891 121.788 355.603 113.188C357.315 104.588 361.54 96.6885 367.744 90.4882C373.948 84.2878 381.853 80.0653 390.459 78.3547C399.064 76.644 407.984 77.522 416.091 80.8776C424.197 84.2332 431.125 89.9157 436 97.2065C440.875 104.497 443.477 113.069 443.477 121.838C443.477 127.66 442.329 133.425 440.1 138.804C437.87 144.183 434.603 149.07 430.483 153.187C426.364 157.304 421.473 160.57 416.091 162.798C410.708 165.026 404.939 166.172 399.114 166.172Z"
              fill="black"/>
        <path d="M281.565 250.637C309.823 250.637 332.73 227.744 332.73 199.504C332.73 171.264 309.823 148.371 281.565 148.371C253.307 148.371 230.399 171.264 230.399 199.504C230.399 227.744 253.307 250.637 281.565 250.637Z"
              fill="#3F3D56"/>
        <path d="M310.664 184.056L295.344 199.632C295.317 199.658 295.296 199.689 295.281 199.723C295.266 199.757 295.259 199.794 295.259 199.831C295.259 199.869 295.266 199.906 295.281 199.94C295.296 199.974 295.317 200.005 295.344 200.031L306.093 211.453C306.35 211.712 306.525 212.041 306.596 212.399C306.666 212.757 306.63 213.128 306.49 213.465C306.351 213.802 306.115 214.091 305.812 214.294C305.509 214.498 305.153 214.608 304.788 214.61C304.297 214.609 303.826 214.414 303.477 214.067L292.785 202.686C292.73 202.632 292.657 202.602 292.58 202.602C292.503 202.602 292.43 202.632 292.375 202.686L289.77 205.315C288.703 206.405 287.429 207.271 286.023 207.863C284.616 208.454 283.106 208.758 281.58 208.758C280.025 208.75 278.488 208.434 277.057 207.826C275.626 207.218 274.331 206.332 273.247 205.218L270.744 202.66C270.689 202.606 270.616 202.576 270.539 202.576C270.463 202.576 270.389 202.606 270.334 202.66L259.667 214.016C259.496 214.188 259.292 214.324 259.067 214.417C258.843 214.51 258.602 214.558 258.359 214.558C258.117 214.558 257.876 214.51 257.652 214.417C257.427 214.324 257.223 214.188 257.052 214.016C256.879 213.845 256.742 213.641 256.649 213.417C256.555 213.193 256.507 212.952 256.507 212.709C256.507 212.466 256.555 212.226 256.649 212.001C256.742 211.777 256.879 211.574 257.052 211.402L267.76 200.005C267.807 199.95 267.834 199.879 267.834 199.806C267.834 199.733 267.807 199.662 267.76 199.606L252.44 184.03C252.4 183.99 252.35 183.964 252.295 183.953C252.241 183.942 252.184 183.947 252.132 183.969C252.081 183.99 252.037 184.026 252.006 184.073C251.975 184.119 251.958 184.174 251.959 184.23V215.397C251.963 216.602 252.443 217.757 253.296 218.609C254.148 219.46 255.303 219.941 256.509 219.945H306.605C307.811 219.941 308.966 219.46 309.818 218.609C310.671 217.757 311.151 216.602 311.155 215.397V184.255C311.158 184.197 311.142 184.14 311.111 184.091C311.08 184.042 311.034 184.004 310.98 183.982C310.926 183.96 310.867 183.956 310.81 183.969C310.754 183.982 310.703 184.012 310.664 184.056Z"
              fill="#F6635A"/>
        <path d="M281.565 205.059C282.603 205.069 283.633 204.871 284.593 204.476C285.554 204.08 286.424 203.496 287.154 202.757L309.466 180.061C308.674 179.405 307.679 179.043 306.651 179.037H256.519C255.49 179.041 254.495 179.403 253.704 180.061L276.021 202.757C276.745 203.492 277.608 204.074 278.56 204.469C279.512 204.864 280.534 205.065 281.565 205.059Z"
              fill="#F6635A"/>
        <path opacity="0.1"
              d="M280.92 148.376C270.794 148.371 260.894 151.367 252.473 156.986C244.051 162.605 237.487 170.594 233.609 179.942C229.732 189.29 228.716 199.578 230.69 209.503C232.665 219.428 237.54 228.545 244.7 235.701C251.86 242.856 260.983 247.729 270.915 249.701C280.846 251.674 291.14 250.659 300.494 246.784C309.848 242.91 317.842 236.349 323.465 227.933C329.087 219.517 332.085 209.623 332.08 199.504C332.073 185.946 326.681 172.945 317.088 163.359C307.495 153.772 294.486 148.383 280.92 148.376ZM280.92 243.839C272.146 243.839 263.568 241.239 256.273 236.367C248.977 231.495 243.291 224.571 239.934 216.47C236.576 208.369 235.697 199.455 237.409 190.855C239.121 182.255 243.346 174.355 249.55 168.155C255.755 161.954 263.659 157.732 272.265 156.021C280.871 154.31 289.79 155.188 297.897 158.544C306.003 161.9 312.932 167.582 317.806 174.873C322.681 182.164 325.283 190.735 325.283 199.504C325.283 211.262 320.609 222.539 312.289 230.853C303.969 239.168 292.686 243.839 280.92 243.839Z"
              fill="black"/>
        <path d="M160.136 212.451C188.394 212.451 211.301 189.558 211.301 161.318C211.301 133.078 188.394 110.185 160.136 110.185C131.878 110.185 108.97 133.078 108.97 161.318C108.97 189.558 131.878 212.451 160.136 212.451Z"
              fill="#3F3D56"/>
        <path d="M160.136 136.851L139.738 183.882L141.642 185.785L160.141 177.631L178.64 185.785L180.544 183.882L160.136 136.851Z"
              fill="#F6635A"/>
        <path opacity="0.1"
              d="M160.136 110.169C150.011 110.164 140.112 113.16 131.691 118.778C123.27 124.396 116.706 132.383 112.828 141.73C108.95 151.076 107.932 161.362 109.905 171.287C111.877 181.211 116.75 190.328 123.907 197.485C131.065 204.641 140.185 209.516 150.115 211.492C160.045 213.468 170.338 212.456 179.692 208.585C189.047 204.714 197.043 198.158 202.668 189.745C208.294 181.332 211.296 171.441 211.296 161.323C211.296 147.761 205.907 134.753 196.313 125.161C186.72 115.569 173.707 110.176 160.136 110.169ZM160.136 205.632C151.361 205.632 142.782 203.031 135.486 198.159C128.19 193.286 122.504 186.36 119.147 178.258C115.79 170.155 114.913 161.239 116.627 152.639C118.341 144.038 122.569 136.138 128.775 129.939C134.982 123.74 142.889 119.519 151.497 117.811C160.104 116.104 169.025 116.985 177.131 120.345C185.236 123.704 192.163 129.391 197.035 136.685C201.906 143.979 204.504 152.553 204.499 161.323C204.497 173.08 199.823 184.356 191.503 192.669C183.184 200.982 171.901 205.653 160.136 205.653V205.632Z"
              fill="black"/>
        <g opacity="0.1">
            <path opacity="0.1"
                  d="M389.117 238.181H389.004C389.439 238.266 389.885 238.266 390.32 238.181H390.448C390.007 238.117 389.558 238.117 389.117 238.181Z"
                  fill="black"/>
            <path opacity="0.1"
                  d="M399.677 227.224C398.955 228.846 397.89 237.629 397.701 239.373C398.407 239.557 398.873 239.69 398.873 239.69C398.873 239.69 399.979 229.357 400.787 227.526L399.677 227.224Z"
                  fill="black"/>
        </g>
        <path d="M428.116 211.965C429.452 209.494 427.937 206.461 426.191 204.256C424.446 202.052 422.327 199.76 422.373 196.946C422.434 192.91 426.723 190.527 430.153 188.383C432.695 186.791 435.039 184.902 437.135 182.756C438.015 181.934 438.743 180.963 439.285 179.887C439.991 178.306 439.97 176.511 439.929 174.771C439.779 169.008 439.494 163.252 439.075 157.502"
              stroke="#3F3D56" stroke-width="4" stroke-miterlimit="10"/>
        <path d="M445.585 157.195C445.537 156.141 445.223 155.116 444.674 154.215C444.125 153.314 443.357 152.565 442.443 152.039L441.03 154.826L441.071 151.45C440.399 151.25 439.698 151.165 438.998 151.2C437.753 151.258 436.553 151.683 435.55 152.423C434.547 153.162 433.787 154.182 433.364 155.354C432.941 156.526 432.876 157.796 433.176 159.005C433.475 160.214 434.127 161.307 435.049 162.146C435.97 162.984 437.12 163.531 438.352 163.717C439.585 163.902 440.844 163.718 441.972 163.188C443.1 162.658 444.045 161.806 444.689 160.739C445.332 159.672 445.644 158.439 445.585 157.195Z"
              fill="#F6635A"/>
        <path d="M434.35 199.821C433.689 201.106 432.606 202.124 431.283 202.706C429.96 203.288 428.477 203.397 427.083 203.016C425.689 202.634 424.468 201.785 423.626 200.612C422.783 199.438 422.371 198.01 422.456 196.568C422.542 195.126 423.122 193.757 424.097 192.692C425.073 191.626 426.385 190.928 427.815 190.714C429.245 190.501 430.704 190.785 431.949 191.519C433.194 192.253 434.148 193.393 434.652 194.747L430.716 197.949L435.046 196.926C435.051 197.933 434.812 198.926 434.35 199.821Z"
              fill="#F6635A"/>
        <path d="M431.238 187.59C429.691 187.665 428.171 187.167 426.968 186.193C425.765 185.218 424.963 183.835 424.715 182.307C424.468 180.779 424.792 179.214 425.626 177.91C426.46 176.606 427.745 175.654 429.237 175.237L429.206 177.83L430.634 175.012C432.304 174.935 433.935 175.524 435.17 176.649C436.406 177.774 437.143 179.344 437.222 181.012C437.261 181.838 437.137 182.664 436.856 183.442C436.576 184.22 436.145 184.935 435.588 185.547C435.031 186.158 434.358 186.654 433.609 187.005C432.86 187.357 432.049 187.557 431.223 187.595L431.238 187.59Z"
              fill="#F6635A"/>
        <path d="M446.533 177.421C445.556 177.471 444.581 177.293 443.685 176.901C442.789 176.508 441.997 175.913 441.371 175.162C440.745 174.411 440.302 173.525 440.078 172.573C439.854 171.622 439.855 170.631 440.081 169.68C440.306 168.729 440.75 167.844 441.378 167.094C442.005 166.344 442.798 165.75 443.695 165.36C444.591 164.969 445.567 164.793 446.543 164.844C447.52 164.895 448.472 165.173 449.322 165.656L448.206 168.725L450.499 166.525C451.11 167.08 451.606 167.749 451.957 168.495C452.309 169.241 452.509 170.05 452.547 170.873C452.578 171.456 452.524 172.04 452.388 172.608C452.067 173.936 451.322 175.125 450.266 175.993C449.21 176.861 447.899 177.363 446.533 177.421Z"
              fill="#F6635A"/>
        <path opacity="0.1"
              d="M444.741 158.873C443.287 159.036 441.869 159.487 440.411 159.579C438.952 159.671 437.339 159.318 436.423 158.182C435.995 157.524 435.607 156.841 435.261 156.136C434.862 155.516 434.317 155.004 433.674 154.642C433.266 155.441 433.033 156.317 432.991 157.212C432.948 158.108 433.098 159.002 433.429 159.835C433.761 160.669 434.267 161.421 434.913 162.044C435.559 162.666 436.33 163.143 437.176 163.443C438.021 163.743 438.921 163.859 439.815 163.784C440.709 163.708 441.576 163.443 442.359 163.005C443.142 162.568 443.823 161.968 444.356 161.247C444.888 160.525 445.26 159.698 445.447 158.822C445.212 158.832 444.976 158.847 444.741 158.873Z"
              fill="black"/>
        <path opacity="0.1"
              d="M446.533 177.421C445.447 177.471 444.366 177.239 443.396 176.749C442.426 176.259 441.599 175.526 440.996 174.622C440.393 173.718 440.034 172.674 439.954 171.59C439.874 170.507 440.075 169.421 440.539 168.438C441.039 168.774 441.471 169.203 441.808 169.702C442.182 170.42 442.599 171.116 443.057 171.784C444.035 172.94 445.714 173.318 447.234 173.247C448.754 173.175 450.223 172.735 451.738 172.607C451.948 172.607 452.163 172.572 452.373 172.567C452.06 173.9 451.321 175.096 450.267 175.972C449.213 176.848 447.902 177.357 446.533 177.421Z"
              fill="black"/>
        <path opacity="0.1"
              d="M431.238 187.59C430.161 187.643 429.088 187.418 428.123 186.938C427.158 186.457 426.333 185.737 425.726 184.846C425.119 183.956 424.751 182.924 424.658 181.85C424.565 180.777 424.749 179.697 425.193 178.715C425.709 179.059 426.16 179.492 426.524 179.994C427.036 180.685 427.317 181.483 427.89 182.117C428.955 183.304 430.742 183.718 432.354 183.682C433.966 183.646 435.425 183.263 436.961 183.145C436.581 184.385 435.827 185.477 434.803 186.272C433.779 187.068 432.534 187.528 431.238 187.59Z"
              fill="black"/>
        <path opacity="0.1"
              d="M434.35 199.821C433.599 201.226 432.343 202.295 430.835 202.812C429.327 203.328 427.679 203.255 426.223 202.607C424.767 201.959 423.61 200.784 422.986 199.318C422.362 197.852 422.316 196.204 422.859 194.706C423.379 195.045 423.845 195.461 424.241 195.939C424.845 196.67 425.239 197.473 425.93 198.179C427.22 199.443 429.298 199.959 431.151 200.011C432.22 200.009 433.288 199.946 434.35 199.821Z"
              fill="black"/>
        <path d="M509.502 289.718C510.838 287.248 509.322 284.214 507.577 282.01C505.832 279.805 503.712 277.513 503.759 274.7C503.82 270.664 508.109 268.28 511.539 266.137C514.081 264.544 516.425 262.656 518.521 260.51C519.401 259.688 520.129 258.716 520.67 257.64C521.377 256.059 521.356 254.264 521.315 252.525C521.169 246.761 520.884 241.005 520.461 235.255"
              stroke="#3F3D56" stroke-width="4" stroke-miterlimit="10"/>
        <path d="M526.971 234.948C526.923 233.894 526.609 232.87 526.06 231.968C525.511 231.067 524.743 230.319 523.829 229.792L522.416 232.58L522.457 229.204C521.793 229.006 521.101 228.922 520.409 228.953C519.164 229.011 517.965 229.437 516.962 230.176C515.959 230.916 515.198 231.936 514.775 233.108C514.353 234.279 514.287 235.55 514.587 236.759C514.887 237.968 515.539 239.061 516.46 239.899C517.382 240.738 518.532 241.284 519.764 241.47C520.996 241.656 522.256 241.472 523.384 240.942C524.512 240.412 525.457 239.56 526.1 238.493C526.743 237.426 527.055 236.192 526.997 234.948H526.971Z"
              fill="#F6635A"/>
        <path d="M515.736 277.575C515.075 278.859 513.992 279.878 512.669 280.459C511.346 281.041 509.863 281.15 508.469 280.769C507.075 280.388 505.854 279.539 505.012 278.365C504.17 277.191 503.757 275.763 503.842 274.321C503.928 272.879 504.508 271.511 505.483 270.445C506.459 269.379 507.772 268.681 509.201 268.467C510.631 268.254 512.09 268.538 513.335 269.272C514.58 270.007 515.534 271.146 516.038 272.5L512.102 275.702L516.432 274.679C516.437 275.686 516.198 276.679 515.736 277.575Z"
              fill="#F6635A"/>
        <path d="M512.624 265.344C511.077 265.418 509.557 264.921 508.354 263.946C507.151 262.971 506.349 261.588 506.101 260.06C505.854 258.533 506.178 256.967 507.012 255.663C507.846 254.359 509.131 253.407 510.623 252.99L510.592 255.584L512.02 252.765C513.69 252.689 515.321 253.278 516.556 254.403C517.792 255.528 518.529 257.097 518.608 258.765C518.647 259.591 518.523 260.417 518.242 261.195C517.962 261.973 517.531 262.689 516.974 263.3C516.417 263.911 515.744 264.407 514.995 264.759C514.246 265.11 513.435 265.311 512.609 265.349L512.624 265.344Z"
              fill="#F6635A"/>
        <path d="M527.918 255.175C526.942 255.224 525.967 255.046 525.071 254.654C524.175 254.262 523.382 253.667 522.756 252.916C522.13 252.165 521.688 251.278 521.464 250.327C521.24 249.375 521.241 248.385 521.467 247.434C521.692 246.483 522.136 245.597 522.764 244.847C523.391 244.097 524.184 243.503 525.081 243.113C525.977 242.722 526.953 242.546 527.929 242.597C528.906 242.649 529.857 242.927 530.708 243.409L529.592 246.478L531.885 244.279C532.496 244.833 532.992 245.503 533.343 246.249C533.694 246.995 533.895 247.803 533.933 248.627C533.963 249.21 533.91 249.794 533.774 250.361C533.453 251.69 532.708 252.878 531.652 253.746C530.595 254.615 529.285 255.116 527.918 255.175Z"
              fill="#F6635A"/>
        <path opacity="0.1"
              d="M526.127 236.626C524.673 236.79 523.255 237.24 521.797 237.332C520.338 237.424 518.725 237.071 517.809 235.936C517.381 235.277 516.993 234.594 516.647 233.889C516.248 233.27 515.703 232.757 515.06 232.396C514.652 233.194 514.419 234.07 514.377 234.966C514.334 235.861 514.484 236.756 514.815 237.589C515.147 238.422 515.653 239.175 516.299 239.797C516.945 240.419 517.716 240.896 518.561 241.196C519.407 241.496 520.307 241.613 521.201 241.537C522.095 241.462 522.962 241.196 523.745 240.759C524.528 240.321 525.209 239.722 525.741 239C526.274 238.279 526.646 237.452 526.833 236.575C526.598 236.585 526.362 236.601 526.127 236.626Z"
              fill="black"/>
        <path opacity="0.1"
              d="M527.918 255.174C526.832 255.224 525.752 254.993 524.782 254.502C523.812 254.012 522.985 253.279 522.382 252.375C521.779 251.472 521.42 250.427 521.34 249.344C521.26 248.26 521.461 247.175 521.925 246.192C522.425 246.527 522.856 246.956 523.194 247.455C523.568 248.174 523.985 248.869 524.443 249.537C525.421 250.693 527.099 251.072 528.62 251C530.14 250.929 531.609 250.489 533.124 250.361C533.334 250.361 533.549 250.325 533.759 250.32C533.446 251.654 532.707 252.85 531.653 253.726C530.599 254.602 529.288 255.11 527.918 255.174Z"
              fill="black"/>
        <path opacity="0.1"
              d="M512.624 265.344C511.547 265.396 510.474 265.172 509.509 264.691C508.544 264.211 507.718 263.491 507.112 262.6C506.505 261.709 506.137 260.677 506.044 259.604C505.951 258.53 506.135 257.451 506.579 256.469C507.095 256.812 507.546 257.245 507.91 257.747C508.422 258.438 508.703 259.236 509.276 259.87C510.341 261.057 512.127 261.471 513.74 261.436C515.352 261.4 516.811 261.016 518.347 260.898C517.967 262.138 517.213 263.23 516.189 264.026C515.165 264.821 513.92 265.282 512.624 265.344Z"
              fill="black"/>
        <path opacity="0.1"
              d="M515.736 277.575C514.985 278.98 513.729 280.048 512.221 280.565C510.713 281.082 509.065 281.009 507.609 280.361C506.153 279.712 504.996 278.537 504.372 277.071C503.748 275.605 503.702 273.957 504.245 272.459C504.765 272.798 505.231 273.214 505.627 273.692C506.231 274.424 506.651 275.227 507.316 275.933C508.606 277.196 510.684 277.713 512.537 277.764C513.606 277.763 514.674 277.7 515.736 277.575Z"
              fill="black"/>
        <path d="M230.44 221.203C231.243 221.203 231.894 220.548 231.894 219.74C231.894 218.932 231.243 218.277 230.44 218.277C229.637 218.277 228.986 218.932 228.986 219.74C228.986 220.548 229.637 221.203 230.44 221.203Z"
              fill="#2F2E41"/>
        <path opacity="0.1"
              d="M238.717 222.498C238.709 222.358 238.709 222.218 238.717 222.078C238.14 221.586 237.689 220.963 237.401 220.262C236.352 219.999 235.398 219.448 234.645 218.672C233.893 217.895 233.372 216.924 233.143 215.868C232.358 215.76 231.605 215.488 230.932 215.07C230.259 214.653 229.682 214.098 229.237 213.443C228.874 213.474 228.508 213.463 228.147 213.413C228.595 214.015 229.158 214.523 229.804 214.907C230.45 215.29 231.165 215.542 231.909 215.648C232.141 216.703 232.663 217.672 233.415 218.447C234.167 219.222 235.12 219.773 236.168 220.037C236.459 220.736 236.91 221.358 237.483 221.853C237.483 221.991 237.483 222.134 237.483 222.278C237.467 223.269 237.843 224.227 238.531 224.942C239.219 225.657 240.161 226.071 241.153 226.094C240.429 225.813 239.809 225.318 239.373 224.676C238.938 224.033 238.709 223.273 238.717 222.498Z"
              fill="black"/>
        <path d="M232.44 216.633C232.735 216.409 232.731 215.909 232.432 215.515C232.133 215.121 231.651 214.984 231.356 215.208C231.061 215.431 231.065 215.932 231.364 216.326C231.663 216.719 232.145 216.857 232.44 216.633Z"
              fill="#FBBEBE"/>
        <path d="M484.318 79C482.275 79.1154 480.305 79.7974 478.628 80.9697C476.951 82.142 475.634 83.7582 474.825 85.637C472.451 91.3745 475.507 98.1141 480.096 102.298C484.684 106.482 490.578 108.873 495.933 112.017C503.126 116.239 509.589 122.1 513.188 129.623C516.787 137.147 517.17 146.466 512.939 153.654C509.013 160.325 501.873 164.318 495.064 168"
              stroke="#3F3D56" stroke-miterlimit="10"/>
        <path d="M490.5 83C495.194 83 499 81.2091 499 79C499 76.7909 495.194 75 490.5 75C485.806 75 482 76.7909 482 79C482 81.2091 485.806 83 490.5 83Z"
              fill="#F6635A"/>
        <path d="M496.5 110C501.194 110 505 108.209 505 106C505 103.791 501.194 102 496.5 102C491.806 102 488 103.791 488 106C488 108.209 491.806 110 496.5 110Z"
              fill="#F6635A"/>
        <path d="M481.5 115C486.194 115 490 112.985 490 110.5C490 108.015 486.194 106 481.5 106C476.806 106 473 108.015 473 110.5C473 112.985 476.806 115 481.5 115Z"
              fill="#F6635A"/>
        <path d="M505.5 137C510.194 137 514 135.209 514 133C514 130.791 510.194 129 505.5 129C500.806 129 497 130.791 497 133C497 135.209 500.806 137 505.5 137Z"
              fill="#F6635A"/>
        <path d="M522.5 137C527.194 137 531 135.209 531 133C531 130.791 527.194 129 522.5 129C517.806 129 514 130.791 514 133C514 135.209 517.806 137 522.5 137Z"
              fill="#F6635A"/>
        <path d="M469.656 158.117C469.656 158.117 482.491 152.853 487.36 158.927C492.229 165 484.705 162.571 484.705 162.571L476.295 165L467 163.38L469.656 158.117Z"
              fill="#F2F2F2"/>
        <path d="M492.101 139.989L492.01 139.975C491.978 139.97 491.948 139.992 491.943 140.024L491.673 141.729C491.668 141.762 491.69 141.792 491.722 141.797L491.812 141.811C491.845 141.816 491.875 141.794 491.88 141.762L492.15 140.057C492.155 140.024 492.133 139.994 492.101 139.989Z"
              fill="#464353"/>
        <path d="M61.9168 142.391C63.0544 141.617 64.31 141.016 65.6393 140.608C74.0674 137.614 82.8983 135.778 91.8673 135.156C99.6661 134.628 108.119 135.255 114.21 139.936C115.157 140.599 115.933 141.462 116.476 142.457C117.243 144.036 117.01 145.872 116.762 147.596C116.707 148.265 116.53 148.919 116.24 149.53C115.421 151.021 113.403 151.543 111.65 151.364C109.897 151.185 108.252 150.477 106.523 150.149C105.453 149.971 104.371 149.865 103.285 149.834L92.4415 149.273C85.6984 148.925 78.8666 148.582 72.2522 149.881C70.216 150.231 68.2485 150.878 66.4191 151.801C64.9084 152.611 63.8911 153.773 62.4893 152.277C60.0265 149.649 58.6634 144.818 61.9168 142.391Z"
              fill="#2F2E41"/>
        <path d="M79.0178 147.352C79.0178 147.352 93.604 141.503 99.1367 148.252C104.669 155 96.1188 152.301 96.1188 152.301L86.5624 155L76 153.2L79.0178 147.352Z"
              fill="#F2F2F2"/>
        <path d="M80 142.6C80 142.6 81.946 152.311 80.4865 154.867C79.027 157.422 88.7568 161 88.7568 161L98 156.911C98 156.911 95.5676 141.067 98 138L80 142.6Z"
              fill="#FFB9B9"/>
        <path opacity="0.1"
              d="M80 142.6C80 142.6 81.946 152.311 80.4865 154.867C79.027 157.422 88.7568 161 88.7568 161L98 156.911C98 156.911 95.5676 141.067 98 138L80 142.6Z"
              fill="black"/>
        <path d="M70.3508 257.467C71.7829 260.29 72.7112 263.347 73.6586 266.378C73.6726 266.479 73.7073 266.576 73.7603 266.662C73.8133 266.748 73.8835 266.822 73.9662 266.879C74.0489 266.935 74.1423 266.973 74.2403 266.99C74.3383 267.007 74.4386 267.002 74.5347 266.977L83.4384 266.966C84.5371 266.965 86.0114 266.602 85.9999 265.473C85.9919 264.679 85.2028 264.185 84.6155 263.67C82.9856 262.24 82.5613 259.883 81.8862 257.793C80.5742 253.767 78.0457 250.276 74.6691 247.83C74.2126 247.462 73.6874 247.195 73.1262 247.046C72.5618 246.962 71.9868 246.994 71.4346 247.14C69.8717 247.464 64.0351 248.573 65.1376 250.91C65.6124 251.916 67.3718 252.963 68.1094 253.903C68.9691 255.013 69.7198 256.206 70.3508 257.467Z"
              fill="#575A89"/>
        <path d="M101.498 247.141C101.186 247.809 100.838 248.459 100.457 249.089C99.1732 251.243 97.6587 253.252 96.4635 255.457C95.718 256.833 95.0905 258.32 95.0081 259.889C94.9257 261.458 95.4688 263.127 96.6988 264.077C97.9848 265.07 99.7479 265.116 101.346 264.885C102.944 264.653 104.533 264.187 106.143 264.31C105.601 261.185 108.191 258.435 108.839 255.33C109.021 254.458 109.048 253.554 109.292 252.698C109.554 251.915 109.89 251.16 110.294 250.442C111.584 247.886 112.496 245.151 113 242.323C113.061 241.981 105.125 241.924 104.38 242.088C102.057 242.599 102.397 245.181 101.498 247.141Z"
              fill="#575A89"/>
        <path d="M39.5339 198.717C37.2563 202.265 37.781 206.966 39.3807 210.864C40.9804 214.761 43.5264 218.206 45.269 222.043C46.3799 224.488 47.1589 227.082 48.4099 229.459C49.959 232.404 52.2208 234.999 53.2603 238.157C53.9229 240.171 54.0749 242.377 55.1483 244.207C55.7971 245.185 56.5375 246.099 57.3597 246.938C59.6717 249.574 61.4075 252.66 62.4569 256C63.4379 253.091 66.3756 251.184 69.3928 250.555C72.41 249.926 75.5363 250.353 78.5887 250.782C76.886 248.157 75.1668 245.498 74.1518 242.541C73.1702 239.681 72.8805 236.638 72.2193 233.689C70.8633 227.64 67.9667 222.06 65.099 216.559L79.8386 215.395C82.2444 215.155 84.6631 215.065 87.0803 215.128C90.8848 215.306 94.6119 216.235 98.3961 216.664C102.18 217.093 106.184 216.98 109.556 215.219C103.107 224.428 99.7489 235.431 99.9607 246.654C101.402 245.543 103.075 244.766 104.857 244.381C106.638 243.996 108.484 244.013 110.259 244.43C112.033 244.847 113.692 245.653 115.113 246.79C116.534 247.928 117.681 249.367 118.471 251.002C124.247 243.146 123.561 232.208 128.138 223.604C129.079 221.835 130.232 220.187 131.248 218.459C133.257 215.042 134.714 211.336 136.163 207.649C137.443 204.389 138.733 200.763 137.505 197.483C136.995 196.239 136.253 195.103 135.317 194.134C132.676 191.236 129 189.092 125.07 189.003C119.038 188.866 114.054 193.317 108.762 196.203C102.529 199.603 95.257 200.954 88.1671 200.454C80.8981 199.942 73.9558 197.573 67.0303 195.488C63.5659 194.396 60.0445 193.492 56.4816 192.779C53.5118 192.225 50.6834 192.839 47.7567 193.595C44.5702 194.418 41.3678 195.861 39.5339 198.717Z"
              fill="#2F2E41"/>
        <path d="M102 133C101.997 136.977 100.415 140.791 97.6028 143.603C94.7904 146.415 90.9768 147.997 86.9994 148C86.1055 148.002 85.2135 147.921 84.3343 147.76C81.527 147.253 78.9224 145.956 76.8262 144.021C74.7299 142.087 73.2289 139.594 72.4991 136.836C71.7693 134.079 71.8411 131.17 72.706 128.452C73.5709 125.734 75.1931 123.318 77.3822 121.489C79.5713 119.66 82.2366 118.493 85.0655 118.125C87.8944 117.757 90.7696 118.204 93.3537 119.412C95.9379 120.62 98.1239 122.541 99.6553 124.947C101.187 127.354 102 130.147 102 133Z"
              fill="#FFB9B9"/>
        <path d="M78.4789 147.249C78.4789 147.249 81.2676 148.495 82.2817 149.492C83.2958 150.489 86.338 155.972 91.4084 152.483C96.4789 148.994 96.9859 147 98.507 147C100.028 147 102.056 149.991 102.056 149.991L116 191.112C112.242 195.282 107.886 198.892 103.07 201.829C94.9578 206.813 85.3239 209.306 80.7606 207.312C76.1972 205.318 67.5775 203.823 66.0563 199.835C64.5352 195.848 62 183.885 62 183.885L69.0986 153.48L78.4789 147.249Z"
              fill="#F2F2F2"/>
        <path d="M76.6121 189.754C77.6804 187.365 77.8358 184.662 77.9262 182.031C78.0702 179.426 78.0034 176.813 77.7267 174.219C77.2925 170.827 76.2251 167.558 75.551 164.208C74.96 161.269 74.6728 158.274 74.694 155.273C74.7039 153.903 74.7997 152.461 75.5207 151.313C76.0237 150.512 76.8105 149.891 77.1248 148.993C77.7412 147.231 76.2183 145.387 74.5495 144.661C72.5642 143.798 70.295 143.856 68.2063 144.398C66.1175 144.939 64.1693 145.935 62.2396 146.924C60.8456 147.639 59.422 148.375 58.3411 149.533C56.8201 151.162 56.1512 153.431 55.6112 155.627C55.1789 157.384 54.7947 159.216 55.1236 160.997C55.6577 163.89 57.9356 166.065 59.15 168.728C60.5601 171.82 60.4651 175.423 59.9042 178.793C59.3434 182.163 58.3477 185.458 58.0407 188.862C57.7337 192.267 58.205 195.927 60.2657 198.599C61.1055 199.688 63.3836 202.269 64.921 201.977C66.1287 201.748 67.8797 198.996 68.8526 198.124C71.6633 195.604 74.9981 193.362 76.6121 189.754Z"
              fill="#2F2E41"/>
        <path d="M103.173 145.334C103.217 148.183 101.973 150.891 100.511 153.328C99.0482 155.764 97.3303 158.068 96.2526 160.702C94.9134 163.998 94.6399 167.637 95.4713 171.099C95.7804 172.279 96.1529 173.44 96.5873 174.579L99.3588 182.255C99.7317 183.462 100.273 184.61 100.966 185.663C101.593 186.469 102.328 187.183 103.15 187.784C105.255 189.501 107.678 190.777 110.277 191.538C112.884 192.234 115.737 192.191 118.201 191.082C118.468 180.675 120.124 170.353 123.123 160.393C123.678 158.554 124.283 156.619 123.856 154.746C123.377 152.648 121.708 151.073 120.122 149.635C115.271 145.236 109.937 140.616 103.444 140.023C99.6859 139.68 103.141 143.275 103.173 145.334Z"
              fill="#2F2E41"/>
        <path d="M70.5702 204.165C70.948 204.919 71.1832 205.739 71.5567 206.495C72.108 207.508 72.7896 208.441 73.5834 209.271C76.9044 213.022 80.9639 216.759 85.9177 216.985C86.4099 217.032 86.9061 216.968 87.3715 216.799C88.2381 216.432 88.7501 215.486 88.9187 214.545C89.2699 212.586 88.4208 210.631 87.5707 208.837C85.7281 204.949 83.6549 200.963 80.2051 198.456C76.8044 195.984 72.2477 195.384 68.2818 196.629C66.4848 197.193 63.505 198.177 65.8842 199.847C67.6892 201.114 69.5238 202.079 70.5702 204.165Z"
              fill="#FFB9B9"/>
        <path d="M73.1203 264.862C71.6346 266.95 71.9325 269.934 70.6165 272.14C69.4758 274.053 67.3259 275.055 65.8991 276.75C65.4438 277.313 65.0379 277.917 64.6862 278.554C63.3626 280.847 62.2867 283.786 63.5903 286.091C64.639 287.945 66.8432 288.669 68.8647 289.163C71.4198 289.788 74.0745 290.287 76.6591 289.81C79.2437 289.333 81.7696 287.697 82.6912 285.154C82.8723 284.515 83.0876 283.887 83.3361 283.272C84.737 280.42 89.131 280.389 90.5647 277.555C91.568 275.571 90.6457 273.173 89.7238 271.148L86.908 264.962C85.9736 262.909 82.1856 264.089 80.2109 263.597C77.6354 262.956 74.9731 262.249 73.1203 264.862Z"
              fill="#2F2E41"/>
        <path d="M95.0469 259.07C93.8682 259.926 93.1062 261.27 92.5338 262.639C91.1592 265.927 90.6872 269.531 90.2288 273.082C90.0452 274.505 89.8625 275.961 90.1493 277.366C90.7416 280.266 93.2769 282.402 96.0058 283.289C98.7347 284.176 101.662 284.039 104.518 283.894C105.435 283.847 106.389 283.79 107.194 283.33C108.629 282.51 109.19 280.581 108.944 278.901C108.698 277.221 107.812 275.726 106.946 274.283C106.079 272.841 105.193 271.347 104.945 269.667C104.527 266.841 105.705 262.693 104.031 260.137C102.353 257.575 97.2865 257.443 95.0469 259.07Z"
              fill="#2F2E41"/>
        <path d="M101.64 125.417C101.38 124.494 100.806 123.705 100.029 123.2C100.069 122.211 99.9544 121.222 99.6891 120.273C98.8029 117.511 96.7035 117.669 94.7227 116.448C93.8633 115.918 93.9164 115.45 93.469 114.579C92.8828 113.438 92.0047 112.494 90.9347 111.853C89.6639 110.999 88.3224 110.12 86.819 110.012C83.6597 109.785 81.2374 112.918 78.2177 113.924C76.8868 114.367 75.4566 114.385 74.1186 114.804C72.7806 115.223 71.4456 116.224 71.2462 117.68C71.1542 118.353 71.3166 119.043 71.2232 119.715C71.0376 121.051 69.9258 121.987 69.1815 123.086C67.5357 125.517 67.7239 128.95 69.0401 131.594C69.3175 132.142 69.6348 132.665 69.9892 133.161C70.099 134.41 70.4394 135.626 70.9912 136.738C72.3074 139.382 74.5723 141.358 76.9382 143C76.7444 142.123 76.627 141.229 76.5873 140.33C76.5539 140.03 76.5909 139.726 76.695 139.445C76.9584 138.864 77.6546 138.71 78.1855 138.392C79.285 137.733 79.7161 136.275 79.7479 134.942C79.7797 133.609 79.5118 132.274 79.6442 130.947C79.6494 130.643 79.7151 130.342 79.8372 130.066C79.9592 129.789 80.1349 129.543 80.3528 129.342C80.7586 129.098 81.2221 128.981 81.6887 129.006C83.9414 128.909 86.2952 128.866 88.2822 127.742C88.9601 127.359 89.5902 126.852 90.3344 126.648C92.0231 126.183 93.749 127.431 94.7222 128.959C95.6955 130.486 96.1807 132.304 97.0786 133.882C97.9765 135.46 99.5278 136.867 101.264 136.68C101.362 136.68 101.458 136.659 101.548 136.617C101.637 136.575 101.717 136.513 101.782 136.437C101.857 136.295 101.89 136.133 101.878 135.971L101.975 128.973C102.055 127.776 101.942 126.574 101.64 125.417Z"
              fill="#B6885E"/>
        <path d="M54.38 161.186C52.9675 163.259 51.3388 165.251 50.5623 167.633C50.106 169.033 49.9643 170.513 49.6339 171.947C48.5334 176.725 45.3542 180.968 45.0346 185.859C44.9227 186.946 45.0832 188.044 45.5018 189.054C46.4138 191.027 48.5964 192.066 50.6784 192.72C52.7604 193.374 54.9963 193.846 56.6581 195.254C57.4948 196.052 58.2534 196.926 58.924 197.866C61.6352 201.22 65.2827 203.702 69.4081 205C69.0822 202.767 68.9292 200.075 70.7242 198.695C71.6959 197.948 72.9942 197.815 74.2179 197.71L80 197.213C76.1443 193.493 71.8944 190.201 67.3249 187.393C65.726 186.411 63.9858 185.375 63.2558 183.652C62.7994 182.576 62.8056 181.37 62.7948 180.202C62.7551 175.925 62.3909 171.657 61.7056 167.435C61.2296 164.504 60.5993 161.598 59.8784 158.717C59.6761 157.908 58.48 154.279 57.0077 155.128C56.6609 155.328 56.3365 157.63 56.134 158.107C55.652 159.188 55.0645 160.22 54.38 161.186Z"
              fill="#2F2E41"/>
        <path opacity="0.1"
              d="M62.4249 168C62.498 171.418 61.6677 174.805 59.9986 177.897C59.5644 178.58 59.2444 179.315 59.0485 180.077C58.7581 181.704 59.8168 183.279 61.0268 184.541C63.4139 187.022 66.51 188.905 70 190"
              fill="black"/>
        <path d="M99.7179 148.945L100.113 149C99.7673 148.952 99.4576 148.785 99.252 148.537C99.0463 148.288 98.9615 147.978 99.0162 147.674L103.099 125.018C103.153 124.715 103.343 124.443 103.626 124.262C103.909 124.081 104.262 124.007 104.608 124.055L104.213 124C104.488 124.038 104.751 124.124 104.988 124.251C105.225 124.379 105.432 124.546 105.595 124.744C105.759 124.942 105.876 125.166 105.941 125.403C106.006 125.641 106.017 125.888 105.974 126.129L102.141 147.398C102.098 147.639 102.001 147.871 101.855 148.079C101.71 148.288 101.519 148.469 101.294 148.612C101.069 148.756 100.814 148.859 100.544 148.917C100.273 148.974 99.9927 148.983 99.7179 148.945Z"
              fill="#2F2E41"/>
        <path d="M104.15 123.683L104.688 123.768L100.645 149.312L100.107 149.227C100.016 149.212 99.9286 149.18 99.8501 149.132C99.7716 149.084 99.7033 149.021 99.6492 148.946C99.5951 148.872 99.5561 148.787 99.5346 148.698C99.5131 148.608 99.5095 148.515 99.5238 148.424L103.348 124.266C103.362 124.175 103.394 124.088 103.442 124.009C103.491 123.931 103.554 123.863 103.628 123.808C103.703 123.754 103.787 123.715 103.877 123.694C103.966 123.672 104.059 123.669 104.15 123.683Z"
              fill="#6C63FF"/>
        <path d="M104.221 127.067L104.117 127.05C104.081 127.045 104.046 127.07 104.04 127.106L103.732 129.056C103.726 129.093 103.751 129.128 103.788 129.134L103.891 129.15C103.928 129.156 103.962 129.131 103.968 129.094L104.277 127.144C104.283 127.107 104.258 127.073 104.221 127.067Z"
              fill="#464353"/>
        <path d="M113.878 144.494C114.453 143.136 115.037 141.732 114.998 140.272C114.899 138.948 114.471 137.665 113.748 136.524C112.869 134.993 111.772 133.582 110.486 132.328C108.956 130.836 106.746 129.504 104.659 130.181C103.002 130.719 102.058 132.335 101.445 133.875C101.08 134.627 100.935 135.456 101.027 136.278C101.23 137.338 102.103 138.152 102.736 139.051C103.729 140.46 104.154 142.144 104.562 143.789L105.584 147.914L107.34 155C107.294 154.813 110.602 151.877 110.995 151.252C112.26 149.239 112.957 146.667 113.878 144.494Z"
              fill="#FFB9B9"/>
        <path d="M122.876 153.382L125.313 158.347C126.486 160.388 127.02 162.724 126.849 165.061L126.993 179.955C127.012 181.945 127.028 183.965 126.493 185.885C126.341 186.526 126.055 187.129 125.653 187.656C125.24 188.11 124.753 188.495 124.212 188.794C119.601 191.617 113.623 193.221 108.751 190.856C107.636 190.273 106.575 189.594 105.581 188.828C103.64 187.419 101.67 185.983 100.217 184.091C98.6972 182.111 105.687 174.578 104.664 172.312C102.832 168.252 103.846 158.624 101.003 155.169C100.589 154.666 104.35 155.119 104.335 154.474C104.305 153.168 107.5 151.281 108.733 150.784C110.838 149.935 113.262 148.204 113.614 146C118.092 151.753 105.52 169.138 112.585 171.24C112.696 171.31 112.824 171.348 112.955 171.352C113.086 171.356 113.216 171.325 113.331 171.263C113.446 171.2 113.542 171.108 113.608 170.997C113.674 170.885 113.708 170.758 113.706 170.63C114.107 168.985 114.249 167.292 114.542 165.626C115.08 162.592 116.116 159.664 117.61 156.955C118.447 155.436 121.157 149.877 122.876 153.382Z"
              fill="#2F2E41"/>
        <path opacity="0.1"
              d="M114.896 165C114.605 165.943 114.87 166.986 115.094 167.955C115.743 170.766 116.047 173.677 115.994 176.594C116.003 176.645 116.002 176.698 115.99 176.749C115.978 176.799 115.956 176.845 115.926 176.882C115.896 176.92 115.858 176.947 115.817 176.963C115.775 176.978 115.731 176.981 115.689 176.971C114.736 177.041 113.646 177.049 113 176.202"
              fill="black"/>
    </g>
    <defs>
        <clipPath id="clip0">
            <rect width="561" height="294" fill="white"/>
        </clipPath>
    </defs>
</svg>
