<svg width="28" height="28" viewBox="0 0 28 28" fill="none" xmlns="http://www.w3.org/2000/svg">
    <path fill-rule="evenodd" clip-rule="evenodd"
          d="M10.5308 27.2836C10.5308 26.9426 10.5188 26.0402 10.5119 24.8418C6.61776 25.7089 5.79613 22.9172 5.79613 22.9172C5.15927 21.2587 4.24138 20.8172 4.24138 20.8172C2.97026 19.9263 4.33764 19.9448 4.33764 19.9448C5.74284 20.0461 6.48197 21.4244 6.48197 21.4244C7.73075 23.6177 9.75819 22.985 10.5566 22.6175C10.6838 21.6896 11.0456 21.0569 11.4453 20.6982C8.33666 20.3361 5.06817 19.1041 5.06817 13.6035C5.06817 12.0367 5.61392 10.7554 6.50947 9.75165C6.36594 9.38858 5.88465 7.92927 6.64698 5.95268C6.64698 5.95268 7.82271 5.5667 10.4965 7.42433C11.6129 7.10621 12.811 6.94582 14.0021 6.94054C15.1908 6.94582 16.388 7.10621 17.507 7.42433C20.179 5.5667 21.353 5.95268 21.353 5.95268C22.1171 7.92839 21.6366 9.3877 21.4922 9.75165C22.3895 10.7554 22.931 12.0367 22.931 13.6035C22.931 19.1182 19.6573 20.3316 16.5384 20.6868C17.042 21.13 17.4889 22.006 17.4889 23.3454C17.4889 25.2647 17.4709 26.8131 17.4709 27.2836C17.4709 27.6679 17.7236 28.1138 18.4343 27.9736C23.9924 26.072 28 20.6947 28 14.3552C28 6.42678 21.7312 0 13.9996 0C6.26882 0 0 6.42678 0 14.3552C0.000859449 20.6965 4.01191 26.0772 9.57512 27.9754C10.2747 28.1067 10.5308 27.6634 10.5308 27.2836Z"
          fill="currentColor"/>
</svg>
