<svg width="28" height="28" viewBox="0 0 28 28" fill="none" xmlns="http://www.w3.org/2000/svg">
    <path d="M14.0001 0C10.1978 0 9.72107 0.0161329 8.22782 0.0842738C6.73769 0.152251 5.71995 0.388884 4.82942 0.735003C3.9088 1.09277 3.12803 1.57151 2.34977 2.34982C1.57145 3.12808 1.09272 3.90886 0.734948 4.82947C0.38883 5.71995 0.152196 6.73769 0.0842191 8.22782C0.0160782 9.72107 0 10.1978 0 14.0001C0 17.8022 0.0160782 18.2789 0.0842191 19.7722C0.152196 21.2623 0.38883 22.28 0.734948 23.1705C1.09272 24.0911 1.57145 24.8719 2.34977 25.6503C3.12803 26.4286 3.9088 26.9073 4.82942 27.2651C5.71995 27.6111 6.73769 27.8478 8.22782 27.9158C9.72107 27.9839 10.1978 28 14.0001 28C17.8022 28 18.2789 27.9839 19.7722 27.9158C21.2623 27.8478 22.28 27.6111 23.1705 27.2651C24.0911 26.9073 24.8719 26.4286 25.6503 25.6503C26.4286 24.8719 26.9073 24.0911 27.2651 23.1705C27.6111 22.28 27.8478 21.2623 27.9158 19.7722C27.9839 18.2789 28 17.8022 28 14.0001C28 10.1978 27.9839 9.72107 27.9158 8.22782C27.8478 6.73769 27.6111 5.71995 27.2651 4.82947C26.9073 3.90886 26.4286 3.12808 25.6503 2.34982C24.8719 1.57151 24.0911 1.09277 23.1705 0.735003C22.28 0.388884 21.2623 0.152251 19.7722 0.0842738C18.2789 0.0161329 17.8022 0 14.0001 0V0ZM14.0001 2.52258C17.7382 2.52258 18.181 2.5368 19.6572 2.60417C21.0222 2.66646 21.7635 2.89451 22.2568 3.08619C22.9103 3.34016 23.3766 3.64357 23.8665 4.13346C24.3565 4.62335 24.6598 5.08979 24.9138 5.74319C25.1055 6.23653 25.3336 6.97782 25.3959 8.34277C25.4632 9.81907 25.4775 10.2619 25.4775 14.0001C25.4775 17.7382 25.4632 18.181 25.3959 19.6572C25.3336 21.0222 25.1055 21.7635 24.9138 22.2568C24.6598 22.9103 24.3565 23.3766 23.8665 23.8665C23.3766 24.3565 22.9103 24.6598 22.2568 24.9138C21.7635 25.1055 21.0222 25.3336 19.6572 25.3958C18.1812 25.4632 17.7385 25.4775 14.0001 25.4775C10.2615 25.4775 9.81891 25.4632 8.34277 25.3958C6.97782 25.3336 6.23653 25.1055 5.74319 24.9138C5.08973 24.6598 4.62335 24.3565 4.13341 23.8665C3.64351 23.3766 3.34011 22.9103 3.08619 22.2568C2.89446 21.7635 2.66641 21.0222 2.60412 19.6572C2.53674 18.181 2.52253 17.7382 2.52253 14.0001C2.52253 10.2619 2.53674 9.81907 2.60412 8.34277C2.66641 6.97782 2.89446 6.23653 3.08619 5.74319C3.34011 5.08979 3.64351 4.62335 4.13341 4.13346C4.62335 3.64357 5.08973 3.34016 5.74319 3.08619C6.23653 2.89451 6.97782 2.66646 8.34277 2.60417C9.81907 2.5368 10.2619 2.52258 14.0001 2.52258Z"
          fill="currentColor"/>
    <path d="M14.0013 18.6645C11.4239 18.6645 9.33454 16.5752 9.33454 13.9979C9.33454 11.4206 11.4239 9.33121 14.0013 9.33121C16.5785 9.33121 18.6679 11.4206 18.6679 13.9979C18.6679 16.5752 16.5785 18.6645 14.0013 18.6645ZM14.0013 6.80869C10.0307 6.80869 6.81201 10.0274 6.81201 13.9979C6.81201 17.9684 10.0307 21.1871 14.0013 21.1871C17.9717 21.1871 21.1904 17.9684 21.1904 13.9979C21.1904 10.0274 17.9717 6.80869 14.0013 6.80869Z"
          fill="currentColor"/>
    <path d="M23.1535 6.52666C23.1535 7.45455 22.4014 8.20667 21.4735 8.20667C20.5457 8.20667 19.7935 7.45455 19.7935 6.52666C19.7935 5.59883 20.5457 4.84671 21.4735 4.84671C22.4014 4.84671 23.1535 5.59883 23.1535 6.52666Z"
          fill="currentColor"/>
</svg>
