<svg width="28" height="28" viewBox="0 0 28 28" fill="none" xmlns="http://www.w3.org/2000/svg">
    <path d="M24.5 0H3.5C1.567 0 0 1.567 0 3.5V24.5C0 26.433 1.567 28 3.5 28H24.5C26.433 28 28 26.433 28 24.5V3.5C28 1.567 26.433 0 24.5 0Z"
          fill="#111111"/>
    <path d="M8.02882 9.77084H3.33881V23.8782H8.02882V9.77084Z" fill="white"/>
    <path d="M5.71553 2.96838C4.1109 2.96838 3.0625 4.02333 3.0625 5.40601C3.0625 6.75963 4.07903 7.84363 5.65342 7.84363H5.68375C7.31906 7.84363 8.33696 6.75963 8.33696 5.40601C8.30662 4.02333 7.31915 2.96838 5.71553 2.96838Z"
          fill="white"/>
    <path d="M19.5387 9.43903C17.051 9.43903 15.9366 10.8072 15.3127 11.7681V9.77076H10.6238C10.686 11.094 10.6238 23.8781 10.6238 23.8781H15.3126V15.9995C15.3126 15.5778 15.3429 15.1563 15.4672 14.8549C15.8056 14.0127 16.5777 13.1403 17.8731 13.1403C19.569 13.1403 20.2485 14.4344 20.2485 16.3301V23.8781H24.9375V15.7881C24.9375 11.4548 22.6239 9.43903 19.5387 9.43903Z"
          fill="white"/>
</svg>
