<svg width="28" height="28" viewBox="0 0 28 28" fill="none" xmlns="http://www.w3.org/2000/svg">
    <path fill-rule="evenodd" clip-rule="evenodd"
          d="M14 25.2C16.9704 25.2 19.8192 24.0201 21.9196 21.9196C24.02 19.8192 25.2 16.9705 25.2 14C25.2 11.0296 24.02 8.18086 21.9196 6.08045C19.8192 3.98005 16.9704 2.80005 14 2.80005C11.0296 2.80005 8.1808 3.98005 6.08039 6.08045C3.97998 8.18086 2.79999 11.0296 2.79999 14C2.79999 16.9705 3.97998 19.8192 6.08039 21.9196C8.1808 24.0201 11.0296 25.2 14 25.2ZM13.377 10.0352C13.1661 9.89458 12.9211 9.81378 12.6679 9.80149C12.4147 9.78919 12.163 9.84585 11.9395 9.96542C11.716 10.085 11.5292 10.263 11.399 10.4804C11.2687 10.6979 11.1999 10.9466 11.2 11.2V16.8C11.1999 17.0535 11.2687 17.3022 11.399 17.5197C11.5292 17.7371 11.716 17.9151 11.9395 18.0347C12.163 18.1542 12.4147 18.2109 12.6679 18.1986C12.9211 18.1863 13.1661 18.1055 13.377 17.9648L17.577 15.1648C17.7687 15.037 17.9259 14.8638 18.0347 14.6606C18.1434 14.4574 18.2003 14.2305 18.2003 14C18.2003 13.7696 18.1434 13.5427 18.0347 13.3395C17.9259 13.1363 17.7687 12.9631 17.577 12.8352L13.377 10.0352Z"
          fill="white"/>
</svg>
