<svg width="100%" height="100%" viewBox="0 0 55 82" fill="none" xmlns="http://www.w3.org/2000/svg">
    <path d="M50.8441 29.1607C48.9746 23.51 45.2456 18.6266 40.803 14.7001C35.4357 9.95626 29.0733 6.50803 22.8014 3.09967C22.3089 2.83059 21.4143 3.13953 20.9419 3.30895C20.8112 3.35878 19.6554 3.82718 20.0473 4.04644C30.5106 9.72704 41.8081 15.9956 46.9041 27.297C49.2158 32.4195 49.8089 38.1002 48.1504 43.5017C46.492 48.9033 42.9841 53.657 38.7124 57.3444C33.4456 61.8989 27.1234 64.9883 20.7811 67.7987C20.4293 67.9582 19.9066 68.1974 20.3991 68.4565C20.8615 68.6957 22.0073 68.2472 22.4295 68.0579C33.3149 63.2443 44.9441 57.0953 49.9697 45.7142C52.3116 40.4521 52.6533 34.6519 50.8441 29.1607Z"
          fill="black"/>
    <path d="M34.8764 77.908C24.8885 78.7341 14.8507 78.1207 5.03723 76.1495C11.0948 69.3855 16.3048 61.9181 20.526 53.9191C21.1492 52.7413 18.7146 52.7413 18.2243 53.6574C13.8951 61.8691 8.51057 69.5 2.22034 76.3867C1.68853 76.9674 2.21203 77.4582 2.81031 77.5808C13.2553 79.8301 24.016 80.5089 34.6687 79.6256C35.1755 79.5847 35.9483 79.2575 35.9982 78.6768C36.0397 78.0798 35.3666 77.8671 34.8764 77.908Z"
          fill="black"/>
</svg>
