<svg width="28" height="28" viewBox="0 0 28 28" fill="none" xmlns="http://www.w3.org/2000/svg">
    <path d="M14.038 27.9929C11.0405 28.0169 8.04314 27.9608 5.05135 27.7282C4.07846 27.648 3.10557 27.5277 2.22265 26.8461C1.63217 26.3889 1.17665 25.7554 0.889844 24.8572C0.406209 23.3655 0.25437 21.7937 0.164392 20.1898C-0.0268125 16.8776 -0.0380598 13.5655 0.063166 10.2614C0.113779 8.50512 0.153145 6.73277 0.445575 5.00855C0.558048 4.3349 0.721134 3.67728 0.940457 3.05175C1.45783 1.58416 2.35762 0.854366 3.44299 0.549619C4.35402 0.292991 5.28755 0.301011 6.21545 0.244873C9.35908 0.0604209 12.5083 -0.035815 15.6576 0.0123029C18.0814 0.0524012 20.5108 0.140617 22.9346 0.317049C23.6825 0.373187 24.4361 0.389227 25.1503 0.76615C26.1176 1.27941 26.8374 2.14553 27.2254 3.54897C27.6022 4.89627 27.7484 6.29169 27.8272 7.72721C28.0465 11.6248 28.0521 15.5223 27.8722 19.4199C27.8103 20.7351 27.7484 22.0503 27.5066 23.3415C26.9611 26.3087 25.6621 27.4716 23.7556 27.656C21.7199 27.8485 19.6785 27.9528 17.6371 27.9929C16.4393 28.0089 15.2358 27.9929 14.038 27.9929ZM11.0855 19.7888C13.8074 17.6636 16.4955 15.5624 19.2286 13.4292C16.4899 11.2879 13.8018 9.19481 11.0855 7.0696C11.0855 11.3441 11.0855 15.5384 11.0855 19.7888Z"
          fill="currentColor"/>
    <path d="M11.0855 19.7887C11.0855 15.5383 11.0855 11.344 11.0855 7.07758C13.8018 9.19476 16.4899 11.2959 19.2286 13.4372C16.4955 15.5704 13.8074 17.6635 11.0855 19.7887Z"
          fill="none"/>
</svg>
